<svg id="Arsenal_Logo" data-name="Arsenal Logo" xmlns="http://www.w3.org/2000/svg" width="146.31" height="176.72" viewBox="0 0 146.31 176.72">
  <g id="Group_354" data-name="Group 354" transform="translate(88.165 167.365)">
    <path id="Path_8835" data-name="Path 8835" d="M1705.924,2442.553v2.543h-.78v-5.629h2.012c.944,0,1.918.3,1.918,1.411a1.333,1.333,0,0,1-1.061,1.355v.019c.679.165.771.521.858,1.152a8.211,8.211,0,0,0,.352,1.691h-.835c-.07-.336-.165-.7-.2-1.035a2.276,2.276,0,0,0-.319-1.247c-.226-.261-.539-.236-.851-.261Zm-.016-.668h1.286c.867-.039,1.061-.43,1.061-.874s-.193-.832-1.061-.874h-1.286Z" transform="translate(-1702.447 -2437.704)"/>
    <g id="Group_353" data-name="Group 353" transform="translate(0 0)">
      <circle id="Ellipse_213" data-name="Ellipse 213" cx="4.052" cy="4.052" r="4.052" transform="translate(0 1.298) rotate(-9.218)" fill="none" stroke="#000" stroke-width="0.1"/>
    </g>
  </g>
  <g id="Group_357" data-name="Group 357" transform="translate(0 0)">
    <path id="Path_8836" data-name="Path 8836" d="M732.983,488.917A159.655,159.655,0,0,1,798.375,502.8c4.3,17.489,7.006,35.733,7.068,47.686,0,.215,0,.432,0,.647a116.85,116.85,0,0,1-5.039,34.224,111.778,111.778,0,0,1-14.537,30.253,121.618,121.618,0,0,1-22.921,25.032c-9.506,7.892-20.682,14.987-29.966,19.035-9.283-4.048-20.46-11.142-29.967-19.035a121.636,121.636,0,0,1-22.92-25.032,111.78,111.78,0,0,1-14.538-30.253,116.869,116.869,0,0,1-5.039-34.227c0-.215,0-.43,0-.645.063-11.953,2.769-30.2,7.069-47.686A159.655,159.655,0,0,1,732.983,488.917Z" transform="translate(-659.827 -488.159)" fill="#fff"/>
    <path id="Path_8837" data-name="Path 8837" d="M1500.032,597.451a28.315,28.315,0,0,1,13.869,3.591h42.218c.086-2.952.037-6.267-.023-9.4-.248-12.93-4.006-34.753-7.689-49.892a155.946,155.946,0,0,0-48.363-7.684Z" transform="translate(-1426.874 -529.411)" fill="#ca0538"/>
    <path id="Path_8838" data-name="Path 8838" d="M906.075,534.645a154.389,154.389,0,0,0-48.33,7.613c-3.887,15.689-7.1,36.462-7.584,46.434-.707,14.6.353,25.16,3.276,36.715a112.514,112.514,0,0,0,6.6,18.784,70.417,70.417,0,0,0,9.267-5.9,46.787,46.787,0,0,0,8.528-8.609,28.726,28.726,0,0,1,.25-8.293c-5.84.2-9.161.281-11.763.281-3.142,0-6.007-2.188-7.4-5.537h-1.47c-1.11,0-2.99-.947-2.99-4.5s1.879-4.5,2.99-4.5h1.467c1.389-3.359,4.257-5.553,7.4-5.553H892.21a28.3,28.3,0,0,1,13.86-3.6Z" transform="translate(-832.906 -529.94)" fill="#e20613"/>
    <path id="Path_8839" data-name="Path 8839" d="M749.785,769.977A117.148,117.148,0,0,1,730,743.868a110.156,110.156,0,0,1-11.272-30.712,122.627,122.627,0,0,1-2.235-33.578c.722-10.987,3.622-27.628,7.2-43.022q-5.145,1.808-10.187,3.981c-3.768,15.125-6.411,34.313-6.466,44.8a113,113,0,0,0,4.862,33.674,104.189,104.189,0,0,0,14.016,29.166,117.646,117.646,0,0,0,22.165,24.2,140.63,140.63,0,0,0,27.4,17.62h0A140.643,140.643,0,0,1,749.785,769.977Z" transform="translate(-702.331 -623.054)" fill="#003671"/>
    <path id="Path_8840" data-name="Path 8840" d="M1525.644,769.852a117.123,117.123,0,0,0,19.786-26.11A110.12,110.12,0,0,0,1556.7,713.03a122.561,122.561,0,0,0,2.235-33.577c-.722-10.988-3.629-27.644-7.21-43.038,3.43,1.205,6.845,2.54,10.205,3.99,3.768,15.125,6.4,34.32,6.456,44.811a112.955,112.955,0,0,1-4.86,33.674,107.808,107.808,0,0,1-14.016,29.167,117.7,117.7,0,0,1-22.167,24.2,140.591,140.591,0,0,1-27.395,17.62h0A140.619,140.619,0,0,0,1525.644,769.852Z" transform="translate(-1426.799 -622.925)" fill="#003671"/>
    <path id="Path_8841" data-name="Path 8841" d="M1213.883,1284.816a27.007,27.007,0,1,0,27.008,27.006A27.007,27.007,0,0,0,1213.883,1284.816Z" transform="translate(-1140.749 -1215.357)" fill="#a1853e"/>
    <path id="Path_8842" data-name="Path 8842" d="M1056.084,1809.376a28.412,28.412,0,0,1-22.55-11.1,97.06,97.06,0,0,1-19.388,8.437,117.31,117.31,0,0,0,18.813,24.694,139.385,139.385,0,0,0,23.125,18.631Z" transform="translate(-982.93 -1684.495)" fill="#e20613"/>
    <path id="Path_8843" data-name="Path 8843" d="M928.782,1343.737c-2.922,0-5.421-2.3-6.412-5.538h-2.455c-.634,0-1.576-.768-1.576-3.085s.942-3.087,1.576-3.087h2.454c.989-3.241,3.49-5.552,6.414-5.552H952.4a28.448,28.448,0,0,0-11.562,16.968C935.607,1343.625,931.6,1343.737,928.782,1343.737Z" transform="translate(-895.392 -1253.421)" fill="#a1853e"/>
    <path id="Path_8844" data-name="Path 8844" d="M791.64,494.221a161.669,161.669,0,0,0-131.97,0c-4.626,18.722-7.109,36.883-7.168,48.181a117.583,117.583,0,0,0,5.067,35.074,112.518,112.518,0,0,0,14.627,30.44,122.363,122.363,0,0,0,23.051,25.176c8.471,7.033,19.944,14.747,30.41,19.259,10.464-4.513,21.937-12.227,30.408-19.259a122.365,122.365,0,0,0,23.05-25.176,112.472,112.472,0,0,0,14.628-30.44,117.614,117.614,0,0,0,5.067-35.074C798.75,531.1,796.267,512.943,791.64,494.221ZM775.221,605.262a117.62,117.62,0,0,1-22.166,24.2,140.758,140.758,0,0,1-27.407,17.625,140.681,140.681,0,0,1-27.393-17.625,117.626,117.626,0,0,1-22.165-24.2q-.718-1.052-1.407-2.123c8.825-1.49,18.58-5.237,27.586-10.369a28.257,28.257,0,0,1-4.583-10.985,46.284,46.284,0,0,1-8.016,7.878,59.272,59.272,0,0,1-17.5,9.406,107.532,107.532,0,0,1-10.1-22.974,112.9,112.9,0,0,1-4.861-33.67c.055-10.491,2.7-29.679,6.465-44.8a156.794,156.794,0,0,1,123.954,0c3.768,15.125,6.412,34.314,6.466,44.8q.028,5.445-.438,10.775l-51.921,0a28.409,28.409,0,0,1,12.035,19.531l9.9-2.36a4.051,4.051,0,0,0,3.353-3.354l24.909-1.686a109.582,109.582,0,0,1-2.7,10.767A107.781,107.781,0,0,1,775.221,605.262Z" transform="translate(-652.5 -480.142)" fill="#a1853e"/>
    <path id="Path_8845" data-name="Path 8845" d="M1520.537,1661.1v14.548a22.074,22.074,0,0,0,16.385-9.458l-12.6-7.274A7.7,7.7,0,0,1,1520.537,1661.1Z" transform="translate(-1445.608 -1557.17)" fill="#fff"/>
    <path id="Path_8846" data-name="Path 8846" d="M1305.588,1342.572a22.076,22.076,0,0,0-16.393,9.465l12.576,7.256a7.683,7.683,0,0,1,3.817-2.205Z" transform="translate(-1234.235 -1268.129)" fill="#fff"/>
    <path id="Path_8847" data-name="Path 8847" d="M1458.176,1552.106a3.927,3.927,0,1,0,3.923,3.925A3.927,3.927,0,0,0,1458.176,1552.106Z" transform="translate(-1385.043 -1459.576)" fill="#fff"/>
    <path id="Path_8848" data-name="Path 8848" d="M1520.537,1342.578v14.517a7.676,7.676,0,0,1,3.814,2.2l12.577-7.255A22.081,22.081,0,0,0,1520.537,1342.578Z" transform="translate(-1445.608 -1268.134)" fill="#fff"/>
    <path id="Path_8849" data-name="Path 8849" d="M1305.643,1661.125a7.662,7.662,0,0,1-3.194-1.621,7.241,7.241,0,0,1-.594-.561l-12.6,7.275c.289.416.593.82.909,1.217a22.054,22.054,0,0,0,15.479,8.24Z" transform="translate(-1234.29 -1557.19)" fill="#fff"/>
    <path id="Path_8850" data-name="Path 8850" d="M1585.228,1499.774l12.593,7.271a22.121,22.121,0,0,0,0-18.921l-12.586,7.261A7.64,7.64,0,0,1,1585.228,1499.774Z" transform="translate(-1504.716 -1401.116)" fill="#fff"/>
    <path id="Path_8851" data-name="Path 8851" d="M1313.435,1368.72l10.262,5.917a8.724,8.724,0,0,1,2.627-1.507l0-11.85A20.313,20.313,0,0,0,1313.435,1368.72Z" transform="translate(-1256.383 -1285.221)" fill="#a1853e"/>
    <path id="Path_8852" data-name="Path 8852" d="M1536.949,1361.4l-.021,11.874a8.522,8.522,0,0,1,2.6,1.469l10.286-5.912A20.251,20.251,0,0,0,1536.949,1361.4Z" transform="translate(-1460.585 -1285.334)" fill="#a1853e"/>
    <path id="Path_8853" data-name="Path 8853" d="M1615.562,1516.978a20.062,20.062,0,0,0-1.289-5.276l-10.3,5.922a8.783,8.783,0,0,1,.131,1.479c0,.2-.009.4-.024.6,2.912-.793,5.978-1.553,9.084-2.208C1613.92,1517.336,1614.725,1517.163,1615.562,1516.978Z" transform="translate(-1521.843 -1422.658)" fill="#a1853e"/>
    <path id="Path_8854" data-name="Path 8854" d="M1500.005,1570.372a139.436,139.436,0,0,0,23.146-18.65,117.331,117.331,0,0,0,19.682-26.27,110.355,110.355,0,0,0,11.125-30.836c.167-.821.325-1.606.472-2.427l-11.962.856a5.45,5.45,0,0,1-4.073,3.373l.019,0c-.08.019-4.465,1.109-10.121,2.412.07.813.106,1.637.106,2.467a28.4,28.4,0,0,1-28.393,28.422Z" transform="translate(-1426.849 -1404.83)" fill="#ca0538"/>
    <path id="Path_8855" data-name="Path 8855" d="M1475.487,1570.811a2.529,2.529,0,1,0-2.529,2.531A2.533,2.533,0,0,0,1475.487,1570.811Z" transform="translate(-1399.827 -1474.355)" fill="#a1853e"/>
    <path id="Path_8856" data-name="Path 8856" d="M1536.867,1692.486a20.345,20.345,0,0,0,12.9-7.427l-10.332-5.947a8.659,8.659,0,0,1-2.564,1.5S1536.885,1692.487,1536.867,1692.486Z" transform="translate(-1460.53 -1575.618)" fill="#ca0538"/>
    <path id="Path_8857" data-name="Path 8857" d="M1313.5,1684.979l10.288-5.955a8.832,8.832,0,0,0,2.6,1.486l-.024,11.892A20.252,20.252,0,0,1,1313.5,1684.979Z" transform="translate(-1256.444 -1575.538)" fill="#e20613"/>
    <path id="Path_8858" data-name="Path 8858" d="M1621.475,1588.969c0-.28-.007-.562-.018-.839-.778.169-1.525.331-2.229.478-3.143.664-6.181,1.433-8.894,2.173l9.735,5.619A20.179,20.179,0,0,0,1621.475,1588.969Z" transform="translate(-1527.656 -1492.49)" fill="#ca0538"/>
    <path id="Path_8859" data-name="Path 8859" d="M1245.943,1488.354a22.079,22.079,0,0,0,.041,18.93l12.557-7.29a7.665,7.665,0,0,1-.011-4.409Z" transform="translate(-1192.789 -1401.326)" fill="#fff"/>
    <path id="Path_8860" data-name="Path 8860" d="M1261.612,1526.773l10.241-5.952a8.809,8.809,0,0,1,0-3.028l-10.277-5.9A20.315,20.315,0,0,0,1261.612,1526.773Z" transform="translate(-1207.729 -1422.835)" fill="#a1853e"/>
    <path id="Path_8861" data-name="Path 8861" d="M937.029,823.412c-.027.556-.17,2.417-.217,2.973H945a47.2,47.2,0,0,1-.759-7.486c0,.011-.126-4.723-.126-4.723a1.463,1.463,0,0,1,.369-1.1,1.261,1.261,0,0,1,.892-.394c.383-.005,1.023-.013,1.073,1.322l.177,5.022a46.016,46.016,0,0,1-.184,7.355h7.98c-.133-.687-.361-2.333-.413-2.785,1,2.122,3.144,3.208,6.018,3.208a7.446,7.446,0,0,0,4-1.217l.411.794h14.737a48.863,48.863,0,0,1-1.319-7.577c0-.012-2.016-16.509-2.016-16.509l-7.594-1.225a49.91,49.91,0,0,1,1.327,7.5c0,.008,1.137,10.547,1.137,10.547a50.343,50.343,0,0,1,.4,6.052l0,.256-.3-.745a18.831,18.831,0,0,1-1.041-5.527c0-.016-.316-3.386-.316-3.386-.4-5.359-3.349-7.8-9.75-7.8a25.589,25.589,0,0,0-5.458.746l.444,6.1,1.706-1.048a6.909,6.909,0,0,1,3.764-1.224,1.958,1.958,0,0,1,1.985,1.074,16.018,16.018,0,0,0-4.1,1.206,7.478,7.478,0,0,0-4.333,4.224c0-.05,0-.1-.006-.147,0-.011-.262-5.6-.262-5.6-.136-3.616-2.388-5.869-5.876-5.869a7.178,7.178,0,0,0-4.283,1.352,4.72,4.72,0,0,0-.227-.609l-.309-.648-6.555-.3a50.8,50.8,0,0,1,.79,5.759,7.709,7.709,0,0,0-3.04-4.9,8.44,8.44,0,0,0-4.856-1.423,9.372,9.372,0,0,0-6.568,2.732,9.845,9.845,0,0,0-2.666,6.729,7.664,7.664,0,0,0-2.463-1.733l-3.012-1.435-.151-.071c-.723-.339-.748-.455-.733-.65.025-.309.719-.639,1.711-.639a9.377,9.377,0,0,1,4.479,1.551l.121-5.389a11.252,11.252,0,0,0-4.712-.881,10.79,10.79,0,0,0-5.119,1.2h0a8.059,8.059,0,0,0-1.383.988l.084-1.584a6.514,6.514,0,0,0-5.9,1.864,8.942,8.942,0,0,0-.323-1.306l-7.079.433a25.371,25.371,0,0,1,.448,7.335c0,.007-.135,2.7-.135,2.7s-.017.309-.017.309c-.079,1.412-.161,2.855-.3,4.2-.589-1.83-1.239-4.324-1.729-6.4,0,0-3.5-15.734-3.5-15.734l-9.982,1.427a5.654,5.654,0,0,1,.293,1.208c.087.659.06,2.022-.89,4.788-1.6,4.667-3.909,11.558-6.111,16.316-.308.665-.833,1.759-.833,1.759h7.776a23.077,23.077,0,0,1,1.114-4.691l5.195-.137a33.393,33.393,0,0,1,.631,3.665l.085,1.163H903.05a42.975,42.975,0,0,1-.12-7.776c.122-2.189.58-3.585,1.484-4.528a3.012,3.012,0,0,1,2.125-.922c-.081,2.926,1.846,4.29,3.558,5.15l3.057,1.557c1.1.576,1.078.871,1.063,1.066-.045.588-.929.815-1.742.8-1.594-.035-3.8-1.135-6.282-3.7l-.133,6.968a13.518,13.518,0,0,0,6.528,1.506c3.545,0,7.351-1.542,8.377-4.849a10.215,10.215,0,0,0,16.063,1.76ZM883.4,816.434c.4-1.16.726-2.089,1.414-4.068l.839,3.993Zm43.7-1.749v-.056c0-2.372.887-3.3,1.723-3.38.252-.023.921-.085,1.226,1.028a3.943,3.943,0,0,1,.169,1c0,.644-.346.768-.754.914l-.025.01s-1.211.464-2.321.891C927.1,814.959,927.094,814.824,927.094,814.686Zm8.139,4.843c-1.474,1.259-2.571,2.1-4.357,2.059a3.222,3.222,0,0,1-2.8-2.034l8.939-3.358c.019,1.2.044,2.824.044,2.824v.013c.036.953.046,1.886.03,2.811,0,.011,0,.023,0,.035Zm26.635,2.237a1.449,1.449,0,0,1-1.674-1.542c.007-.7.238-1.746,2.4-2.332l.109,1.484.046.672c.032.477.061.912.109,1.386A1.879,1.879,0,0,1,961.867,821.765Z" transform="translate(-853.604 -773.201)" fill="#a1853e"/>
    <g id="Group_356" data-name="Group 356" transform="translate(20.947 29.063)">
      <path id="Path_8862" data-name="Path 8862" d="M1285.823,884.932a10.164,10.164,0,0,0-3.476-.5,9.544,9.544,0,0,0-4.521,1.047,5.108,5.108,0,0,0-2.8,3.85c-.15,2.258,1.1,3.333,2.869,4.221,1.205.6,2.351,1.188,3.075,1.566.972.508,1.813,1.131,1.726,2.256-.086,1.143-1.138,1.916-2.949,1.916a8.577,8.577,0,0,1-5.125-2.218l-.064,3.514a12.963,12.963,0,0,0,5.275,1.025c3.292,0,7.361-1.508,7.434-5.355a4.665,4.665,0,0,0-3.146-4.424c-1.188-.552-2.442-1.158-3.029-1.443-.544-.263-1.68-.687-1.58-1.934.1-1.188,1.45-1.752,2.92-1.752a7.179,7.179,0,0,1,3.341.837Z" transform="translate(-1241.81 -878.597)" fill="#fff"/>
      <path id="Path_8863" data-name="Path 8863" d="M909.8,816.831l-7.538,1.078a12.4,12.4,0,0,1-.925,5.355c-1.588,4.628-4.14,12.069-6.167,16.464h4.754a25.767,25.767,0,0,1,1.3-4.669l7.05-.185a42.4,42.4,0,0,1,.88,4.854h6.293a65.743,65.743,0,0,1-2.4-8.283Zm-7.538,15.456,3.451-9.931,2.048,9.746Z" transform="translate(-895.173 -816.831)" fill="#fff"/>
      <g id="Group_355" data-name="Group 355" transform="translate(21.745 0.315)">
        <path id="Path_8864" data-name="Path 8864" d="M1158.162,890.482l-.164,3.344a4.3,4.3,0,0,0-3.679,1.26c-1.03,1.072-1.672,2.633-1.821,5.3a48.248,48.248,0,0,0-.018,6.63h-5.391a58.169,58.169,0,0,0,.6-6.581l.134-2.693a28.348,28.348,0,0,0-.2-6.273l4.7-.29a10.1,10.1,0,0,1,.276,3.02C1154.652,891.109,1156.662,890.412,1158.162,890.482Z" transform="translate(-1147.089 -884.436)" fill="#fff"/>
        <path id="Path_8865" data-name="Path 8865" d="M2004.271,821.264l-4.859-.786a46.164,46.164,0,0,1,.916,5.836l1.137,10.552a50.6,50.6,0,0,1,.4,6.195h5.262a52.628,52.628,0,0,1-.954-6.195Z" transform="translate(-1925.84 -820.478)" fill="#fff"/>
        <path id="Path_8866" data-name="Path 8866" d="M1641.491,905.986a51.245,51.245,0,0,1-.517-6.194l-.262-5.584c-.113-2.964-1.818-4.724-4.674-4.724a6.125,6.125,0,0,0-5.013,2.514,10.854,10.854,0,0,0-.586-2.453l-4.279-.2a45.325,45.325,0,0,1,.566,6.336l.066,4.107a50.487,50.487,0,0,1-.14,6.194h5.389a51.243,51.243,0,0,1-.518-6.194l-.127-4.736a2.567,2.567,0,0,1,2.49-2.768c1.5-.02,2.237.973,2.294,2.479l.175,5.025a50.91,50.91,0,0,1-.055,6.194Z" transform="translate(-1584.808 -883.404)" fill="#fff"/>
      </g>
      <path id="Path_8867" data-name="Path 8867" d="M1837.809,913.038a20.331,20.331,0,0,1-1.127-5.9l-.315-3.371c-.3-3.978-1.969-6.7-8.549-6.7a21.21,21.21,0,0,0-4.138.481l.22,3.057a8.192,8.192,0,0,1,4.414-1.409c1.752,0,3.273.717,3.419,3.335a16.115,16.115,0,0,0-5.073,1.285c-2.007.9-4.071,2.517-3.875,5.271.216,3.047,2.516,4.374,5.41,4.374a6.313,6.313,0,0,0,4.531-1.979,6.778,6.778,0,0,0,.611,1.556Zm-7.8-2.187a2.557,2.557,0,0,1-2.891-2.687c-.047-1.751,1.152-3.3,4.748-3.891l.211,2.87c.072.989.1,1.687.223,2.635A3.2,3.2,0,0,1,1830.011,910.85Z" transform="translate(-1742.702 -890.141)" fill="#fff"/>
      <path id="Path_8868" data-name="Path 8868" d="M1446,883.167a7.178,7.178,0,0,0-4.156-1.2c-3.483,0-8.138,2.473-8.016,8.946.123,6.495,5.089,8.476,8.6,8.476a8.166,8.166,0,0,0,6.457-2.7l-1.078-1.367a6.16,6.16,0,0,1-4.174,1.568c-2.205-.044-3.659-1.688-4.379-3.967l9.679-3.634C1448.629,886.09,1447.535,884.234,1446,883.167Zm-3.352,6.26L1438.8,890.9a16.057,16.057,0,0,1-.153-2.132c-.023-4,2.128-4.6,2.833-4.663a2.307,2.307,0,0,1,2.52,1.924C1444.429,887.59,1444.323,888.826,1442.649,889.427Z" transform="translate(-1387.33 -876.342)" fill="#fff"/>
    </g>
  </g>
  <rect id="Rectangle_798" data-name="Rectangle 798" width="6.412" height="6.412" transform="translate(80.987 165.989)" fill="none"/>
  <rect id="Rectangle_799" data-name="Rectangle 799" width="6.412" height="6.412" transform="translate(74.626 165.989)" fill="none"/>
</svg>
