<svg id="Chelsea_FC" xmlns="http://www.w3.org/2000/svg" width="166.052" height="166.052" viewBox="0 0 166.052 166.052">
  <path id="path3381" d="M166.052,83.026A83.026,83.026,0,1,1,83.026,0a83.025,83.025,0,0,1,83.026,83.026" fill="#dba111"/>
  <path id="path3383" d="M164.006,83.75A80.257,80.257,0,1,1,83.749,3.492,80.255,80.255,0,0,1,164.006,83.75" transform="translate(-0.724 -0.724)" fill="#034694"/>
  <path id="path3385" d="M146.974,89.781a57.195,57.195,0,1,1-57.194-57.2,57.19,57.19,0,0,1,57.194,57.2" transform="translate(-6.755 -6.755)" fill="#dba111"/>
  <path id="path3387" d="M145.7,90.234A55.463,55.463,0,1,1,90.234,34.77,55.465,55.465,0,0,1,145.7,90.234" transform="translate(-7.208 -7.208)" fill="#fff"/>
  <path id="path3389" d="M42.93,164.155l2.124,2.024,1.447-1.524-4.317-4.116-.555.583-5.8,6.076,2.2,2.095s1.859-1.949,2.539-2.659c.568.54,1.932,1.84,1.932,1.84l1.448-1.521s-1.362-1.3-1.929-1.843l.907-.955" transform="translate(-7.428 -33.28)" fill="#dba111"/>
  <path id="path3391" d="M55.485,172.876a4.543,4.543,0,0,0-5.173-3.684,5.124,5.124,0,0,0-4.075,5.739,4.54,4.54,0,0,0,5.175,3.676,4.913,4.913,0,0,0,3.174-2.059,5,5,0,0,0,.964-2.909,4.387,4.387,0,0,0-.065-.763m-6.2,3.228c-1.009-.714-.176-2.206.412-3.026s1.723-2.105,2.731-1.392c1.053.753.069,2.38-.4,3.041s-1.685,2.13-2.74,1.377Z" transform="translate(-9.572 -35.062)" fill="#dba111"/>
  <path id="path3393" d="M64.7,176.631a4.589,4.589,0,0,0-6.244,2.234,4.918,4.918,0,0,0-.341,3.772,4.542,4.542,0,0,0,5.669,2.859,4.89,4.89,0,0,0,2.828-2.507,4.592,4.592,0,0,0-1.912-6.358m-2.569,6.8a1.028,1.028,0,0,1-.824-.085,1.161,1.161,0,0,1-.623-1.123,4.738,4.738,0,0,1,.576-1.934c.458-.906,1.389-2.337,2.493-1.78a1.023,1.023,0,0,1,.554.611,4.744,4.744,0,0,1-2.176,4.311Z" transform="translate(-11.999 -36.513)" fill="#dba111"/>
  <path id="path3395" d="M72.179,180.806l-.428,1.225s1.093.384,1.425.493c-.418,1.2-2.347,6.7-2.347,6.7l2.864,1s1.932-5.5,2.35-6.7l1.428.5.694-1.978-5.719-2.007-.266.76" transform="translate(-14.683 -37.324)" fill="#dba111"/>
  <path id="path3397" d="M86.026,184.143l-3.871-.817-.166.787-1.73,8.215,3.939.835a3.331,3.331,0,0,0,2.561-.355,2.807,2.807,0,0,0,1.182-1.8,2.923,2.923,0,0,0,.066-.61,2.456,2.456,0,0,0-.494-1.485,2.5,2.5,0,0,0,.892-1.47,2.617,2.617,0,0,0,.053-.53,2.792,2.792,0,0,0-2.433-2.769m-1.065,6.271a.9.9,0,0,1-.259.529,1.026,1.026,0,0,1-.711.025s-.149-.033-.325-.067c.126-.593.21-.987.333-1.581.168.039.384.082.384.082a.709.709,0,0,1,.605.756,1.12,1.12,0,0,1-.027.256Zm-.264-4.4a1.148,1.148,0,0,1,.686.347.494.494,0,0,1,.066.271,1.305,1.305,0,0,1-.027.237c-.052.241-.123.575-.792.437,0,0-.083-.022-.2-.046.107-.5.158-.745.266-1.246Z" transform="translate(-16.638 -38.004)" fill="#dba111"/>
  <path id="path3399" d="M95.448,185.578l-4.2,8.609,2.4.184s.65-1.371.909-1.918c.508.042,1.017.078,1.515.118.186.575.655,2.034.655,2.034l3.194.248L96.35,183.791l-.9,1.787" transform="translate(-18.915 -38.1)" fill="#dba111"/>
  <path id="path3401" d="M107.636,192.887l-.295-6.986-3.034.127.384,9.192,6.079-.253-.091-2.206s-2.171.093-3.043.124" transform="translate(-21.623 -38.538)" fill="#dba111"/>
  <path id="path3403" d="M117.935,191.8c-.2-1.244-1.083-6.906-1.083-6.906l-.8.128-2.207.344,1.425,9.092,6.014-.944-.344-2.181s-2.145.339-3.008.469" transform="translate(-23.601 -38.328)" fill="#dba111"/>
  <path id="path3405" d="M139.1,184.482a1.922,1.922,0,0,1-1.214,1.754,1.474,1.474,0,0,1-1.17,0,3.063,3.063,0,0,1-1.464-1.712,3.185,3.185,0,0,1-.211-2.368,1.756,1.756,0,0,1,1.036-.916c.565-.225,1.1-.018,1.836.415l.674.4,1.12-1.766-.664-.437A4.4,4.4,0,0,0,135,179.4a4.772,4.772,0,0,0-2.652,2.547,4.9,4.9,0,0,0,.007,3.792,4.7,4.7,0,0,0,6.084,2.649,4.2,4.2,0,0,0,2.826-3.79l.057-.8-2.2-.163-.026.843" transform="translate(-27.358 -37.128)" fill="#dba111"/>
  <path id="path3407" d="M148.312,181.122c-.621-1.1-3.413-6.112-3.413-6.112l-.7.394-1.953,1.091,4.49,8.032,5.308-2.965-1.075-1.928s-1.9,1.059-2.657,1.488" transform="translate(-29.488 -36.28)" fill="#dba111"/>
  <path id="path3409" d="M155.849,167.093l-.651.476-1.14.838,3.726,5.078a.6.6,0,0,1,.155.473,1.3,1.3,0,0,1-.55.72.958.958,0,0,1-.647.15.711.711,0,0,1-.48-.315l-3.682-5.022-2.454,1.8,3.664,5a3.035,3.035,0,0,0,2.007,1.3,3.853,3.853,0,0,0,2.823-.853c1.921-1.4,1.89-3.27,1.051-4.413l-3.824-5.222" transform="translate(-31.122 -34.639)" fill="#dba111"/>
  <path id="path3411" d="M168.939,163.929a2.519,2.519,0,0,0-1.993-.81,2.482,2.482,0,0,0-.7-1.566,2.779,2.779,0,0,0-4.063.128l-2.842,2.748,6.4,6.611,2.891-2.8a3.3,3.3,0,0,0,1.136-2.322,2.768,2.768,0,0,0-.829-1.987m-4.837-.223a.587.587,0,0,1,.212.386.755.755,0,0,1-.3.515l-.141.142c-.359-.372-.529-.547-.893-.92C163.625,163.24,163.891,163.491,164.1,163.706Zm1.516,2.276a.775.775,0,0,1,1.161.089.864.864,0,0,1,.295.5v.006a1.038,1.038,0,0,1-.373.6s-.11.107-.241.231c-.419-.433-.7-.724-1.122-1.155l.28-.276Z" transform="translate(-33.031 -33.32)" fill="#dba111"/>
  <path id="path3413" d="M43.134,163.525c.25.241,2.12,2.024,2.12,2.024l.617-.65-3.445-3.285-.139.145L36.91,167.4l1.325,1.264s2.291-2.4,2.537-2.664l1.936,1.843.618-.648-1.936-1.842,1.744-1.828" transform="translate(-7.652 -33.503)" fill="#fff"/>
  <path id="path3415" d="M53.451,170.626a3.845,3.845,0,0,0-2.878-.683,4.529,4.529,0,0,0-3.583,5.043,3.933,3.933,0,0,0,4.48,3.181,4.325,4.325,0,0,0,2.782-1.807A4.453,4.453,0,0,0,55.1,173.8a4.126,4.126,0,0,0-.055-.664,3.86,3.86,0,0,0-1.6-2.506m-.777,4.61c-.578.808-2.082,2.584-3.578,1.519s-.307-3.061.268-3.874,2.082-2.586,3.571-1.527S53.251,174.425,52.674,175.236Z" transform="translate(-9.729 -35.219)" fill="#fff"/>
  <path id="path3417" d="M64.583,177.332A4,4,0,0,0,59.15,179.3a4.321,4.321,0,0,0-.307,3.311,3.95,3.95,0,0,0,4.909,2.472,4.329,4.329,0,0,0,2.482-2.206,4.006,4.006,0,0,0-1.65-5.547m-3.393,6.707c-1.632-.821-.764-2.98-.313-3.867s1.671-2.87,3.3-2.042a1.621,1.621,0,0,1,.861.962,5.247,5.247,0,0,1-2.566,5.069,1.608,1.608,0,0,1-1.284-.122Z" transform="translate(-12.157 -36.672)" fill="#fff"/>
  <path id="path3419" d="M72.952,181.2l-.231.654,1.426.5c-.126.358-2.35,6.7-2.35,6.7l1.728.607s2.225-6.339,2.349-6.7l1.426.5.3-.842-4.583-1.609-.064.19" transform="translate(-14.884 -37.525)" fill="#fff"/>
  <path id="path3421" d="M86.091,184.918l-3.28-.692-.044.2-1.6,7.629,3.347.7a2.724,2.724,0,0,0,2.107-.269,2.178,2.178,0,0,0,.922-1.417,2.491,2.491,0,0,0,.053-.484,1.948,1.948,0,0,0-.922-1.637,1.936,1.936,0,0,0,1.374-1.858,2.191,2.191,0,0,0-1.953-2.173m-1.147.675a1.7,1.7,0,0,1,1.128.628,1.07,1.07,0,0,1,.167.6,1.752,1.752,0,0,1-.041.358,1.131,1.131,0,0,1-1.506.9l-.789-.164c.067-.313.448-2.124.514-2.436.21.043.527.11.527.11ZM84.692,189a1.294,1.294,0,0,1,1.079,1.378,1.817,1.817,0,0,1-.034.351,1.34,1.34,0,0,1-.52.905,1.525,1.525,0,0,1-1.163.114s-.6-.128-.916-.191c.069-.328.515-2.441.582-2.763l.972.205Z" transform="translate(-16.825 -38.19)" fill="#fff"/>
  <path id="path3423" d="M96.236,186.262l-3.816,7.811,1.1.082s.808-1.7.915-1.914l2.329.182c.073.224.656,2.034.656,2.034l1.893.146-2.834-8.786-.241.446m-.419,3.14c.184.59.539,1.727.657,2.1l-1.618-.124.961-1.975Z" transform="translate(-19.159 -38.52)" fill="#fff"/>
  <path id="path3425" d="M107.22,193.681c-.015-.381-.3-6.986-.3-6.986l-.195.007-1.633.067.336,7.991,4.875-.207-.043-1s-2.691.114-3.044.125" transform="translate(-21.787 -38.702)" fill="#fff"/>
  <path id="path3427" d="M117.615,192.673c-.061-.377-1.086-6.915-1.086-6.915l-.2.031-1.612.255,1.239,7.9,4.82-.761-.155-.987s-2.665.419-3.009.477" transform="translate(-23.782 -38.508)" fill="#fff"/>
  <path id="path3429" d="M139.859,184.653a2.521,2.521,0,0,1-1.591,2.306,2.062,2.062,0,0,1-1.63-.014,3.615,3.615,0,0,1-1.79-2.041,3.8,3.8,0,0,1-.205-2.831,2.352,2.352,0,0,1,1.371-1.235,2.626,2.626,0,0,1,2.365.454l.17.1.49-.77-.164-.111a3.807,3.807,0,0,0-3.49-.387,4.169,4.169,0,0,0-2.323,2.224,4.3,4.3,0,0,0,.014,3.327,4.093,4.093,0,0,0,5.3,2.316,3.59,3.59,0,0,0,2.443-3.271l.014-.2-.966-.067-.011.2" transform="translate(-27.516 -37.286)" fill="#fff"/>
  <path id="path3431" d="M148.293,182.158c-.188-.33-3.413-6.108-3.413-6.108l-.177.1-1.42.8,3.9,6.976,4.259-2.378-.484-.873s-2.357,1.314-2.659,1.489" transform="translate(-29.703 -36.496)" fill="#fff"/>
  <path id="path3433" d="M155.939,168.155l-.165.121-.653.48,3.37,4.592a1.215,1.215,0,0,1,.266.92,1.889,1.889,0,0,1-.787,1.116,1.536,1.536,0,0,1-1.1.261,1.316,1.316,0,0,1-.881-.553l-3.327-4.538-1.474,1.087,3.306,4.506a2.437,2.437,0,0,0,1.612,1.059,3.4,3.4,0,0,0,2.373-.738c1.6-1.173,1.616-2.64.927-3.573l-3.473-4.738" transform="translate(-31.343 -34.859)" fill="#fff"/>
  <path id="path3435" d="M168.728,164.5a1.957,1.957,0,0,0-2.231-.47,1.813,1.813,0,0,0,.1-.582,1.891,1.891,0,0,0-.569-1.329,2.175,2.175,0,0,0-3.21.142l-2.409,2.333,5.561,5.74,2.462-2.387a2.7,2.7,0,0,0,.953-1.889,2.167,2.167,0,0,0-.661-1.558m-3.591-.249a1.378,1.378,0,0,1-.473.938s-.369.359-.578.564c-.225-.231-1.513-1.558-1.734-1.794.15-.145.385-.369.385-.369.752-.733,1.413-.781,2.019-.153a1.165,1.165,0,0,1,.38.813Zm1.531,4.166c-.228-.235-1.73-1.79-1.961-2.024.2-.191.713-.692.713-.692a1.4,1.4,0,0,1,2.018.1,1.356,1.356,0,0,1,.461.922v.011a1.558,1.558,0,0,1-.558,1.034s-.479.461-.673.645Z" transform="translate(-33.254 -33.476)" fill="#fff"/>
  <path id="path3437" d="M54.022,34.257l-3.356.905.385,1.2a3.722,3.722,0,0,1-1.092,3.979,2.892,2.892,0,0,1-2.167.753A5.779,5.779,0,0,1,44.1,38.978a6.014,6.014,0,0,1-1.84-4.08,3.377,3.377,0,0,1,1.3-2.355c.9-.788,2.042-.758,3.59-.451l1.149.227.743-3.214-1.156-.282a7.7,7.7,0,0,0-6.929,1.608,8.344,8.344,0,0,0-.687,12.041,8.241,8.241,0,0,0,11.607.837,7.358,7.358,0,0,0,2.467-7.9l-.32-1.157" transform="translate(-7.883 -5.926)" fill="#dba111"/>
  <path id="path3439" d="M66.864,14.37l-3.428,1.614s1.914,4.055,2.571,5.453c-.978.46-1.925.907-2.9,1.369-.66-1.4-2.575-5.454-2.575-5.454l-4.514,2.131,6.874,14.581,4.517-2.13s-2.13-4.51-2.815-5.972c.978-.458,1.925-.905,2.905-1.367l2.814,5.969,4.516-2.131L67.956,13.856l-1.092.514" transform="translate(-11.612 -2.872)" fill="#dba111"/>
  <path id="path3441" d="M87.037,22.328c-.22-1.086-.444-2.19-.661-3.275l5.1-1.029-.652-3.239-5.1,1.031c-.2-.993-.367-1.827-.569-2.818l5.414-1.093-.654-3.237-1.186.238L79.6,10.752l3.189,15.8,10.392-2.1-.653-3.235s-4.037.814-5.495,1.11" transform="translate(-16.502 -1.797)" fill="#dba111"/>
  <path id="path3443" d="M106.18,8.169l-5-.1-.025,1.205-.312,14.911,10.49.22.075-3.492s-4.027-.087-5.5-.117l.268-12.625" transform="translate(-20.905 -1.672)" fill="#dba111"/>
  <path id="path3445" d="M125.738,16.77c-1.3-.952-1.676-1.334-1.545-1.854a1.054,1.054,0,0,1,1.289-.9c.56.144,1.118.439,1.366,1.645L127.122,17l3.3-1.115-.205-1.039a5.933,5.933,0,0,0-8.681-3.731,5.034,5.034,0,0,0-2.322,3.121c-.828,3.3,1.4,4.9,2.872,5.95,1.51,1.08,1.894,1.5,1.663,2.4a1.06,1.06,0,0,1-.5.662,1.358,1.358,0,0,1-.99.162c-.793-.2-1.137-.57-1.471-1.6l-.405-1.23-3.311,1.354.321,1.051a5.707,5.707,0,0,0,4.528,3.937,5.521,5.521,0,0,0,6.855-3.844c.859-3.448-1.487-5.176-3.04-6.315" transform="translate(-24.27 -2.143)" fill="#dba111"/>
  <path id="path3447" d="M141.094,26.5l4.643,2.347,1.491-2.948-4.641-2.345c.454-.9.838-1.664,1.291-2.566l4.931,2.492,1.487-2.948-9.383-4.742-.542,1.074L133.64,30.174l9.462,4.779,1.492-2.946s-3.677-1.857-5.005-2.526c.5-.989,1.008-1.994,1.506-2.984" transform="translate(-27.704 -3.273)" fill="#dba111"/>
  <path id="path3449" d="M162.686,30.845l-15.035,7.78,2.876,2.5s2.482-1.319,3.384-1.793l2.319,2.017c-.323.959-1.243,3.656-1.243,3.656l3.963,3.448L165.378,29.5l-2.692,1.346" transform="translate(-30.608 -6.115)" fill="#dba111"/>
  <path id="path3451" d="M53.671,35.448,51.9,35.93l.13.4a4.509,4.509,0,0,1-1.33,4.83,3.685,3.685,0,0,1-2.747.952,6.5,6.5,0,0,1-4.244-2.4,6.77,6.77,0,0,1-2.039-4.667,4.207,4.207,0,0,1,1.572-2.9c1.273-1.113,2.876-.91,4.276-.633l.385.074.388-1.68-.385-.1A6.906,6.906,0,0,0,41.7,31.249a7.556,7.556,0,0,0-.61,10.9,7.437,7.437,0,0,0,10.473.76,6.527,6.527,0,0,0,2.218-7.074l-.107-.39" transform="translate(-8.096 -6.136)" fill="#fff"/>
  <path id="path3453" d="M67.486,15.374l-2.7,1.275L67.358,22.1c-.577.274-3.78,1.785-4.362,2.056-.3-.634-2.567-5.452-2.567-5.452l-3.065,1.444,6.188,13.122,3.063-1.442S64.1,26.5,63.8,25.86L68.162,23.8c.3.643,2.815,5.971,2.815,5.971l3.059-1.446L67.849,15.205l-.363.169" transform="translate(-11.892 -3.152)" fill="#fff"/>
  <path id="path3455" d="M86.653,23.525c-.126-.631-.851-4.221-.977-4.851l5.1-1.03-.335-1.658-5.1,1.028c-.123-.618-.762-3.777-.884-4.395.676-.139,5.411-1.092,5.411-1.092L89.53,9.868,80.8,11.629l2.871,14.223,8.813-1.779-.335-1.659-5.5,1.11" transform="translate(-16.75 -2.046)" fill="#fff"/>
  <path id="path3457" d="M105.572,9.172,102.187,9.1l-.007.4-.3,14.108,8.884.188.039-1.883-5.5-.116c.017-.753.266-12.623.266-12.623" transform="translate(-21.12 -1.886)" fill="#fff"/>
  <path id="path3459" d="M125.936,13.447a2.581,2.581,0,0,1,1.961,2.262l.092.445,1.765-.6-.067-.348a4.994,4.994,0,0,0-3.7-3.694,4.944,4.944,0,0,0-3.772.5,4.255,4.255,0,0,0-1.957,2.63c-.7,2.772,1.112,4.063,2.561,5.1,1.467,1.049,2.351,1.765,1.974,3.253a1.838,1.838,0,0,1-.866,1.159,2.164,2.164,0,0,1-1.6.252,2.676,2.676,0,0,1-2.039-2.127l-.136-.41-1.832.747.107.352a4.965,4.965,0,0,0,3.956,3.393,4.719,4.719,0,0,0,5.874-3.262c.728-2.921-1.19-4.335-2.742-5.47-1.317-.973-2.113-1.623-1.842-2.7a1.82,1.82,0,0,1,2.265-1.483" transform="translate(-24.527 -2.353)" fill="#fff"/>
  <path id="path3461" d="M143.807,20.189c.618.311,4.926,2.488,4.926,2.488l.767-1.512-7.947-4.015-.182.358L135.007,30.1l8.022,4.054.764-1.511-5-2.529c.289-.575,1.942-3.84,2.229-4.415l4.641,2.345.768-1.512s-4.034-2.035-4.646-2.345c.284-.561,1.737-3.439,2.021-4" transform="translate(-27.987 -3.555)" fill="#fff"/>
  <path id="path3463" d="M163.428,31.988l-13.982,7.236,1.563,1.359,3.385-1.794c.348.3,2.805,2.442,3.146,2.738-.148.442-1.246,3.653-1.246,3.653l2.653,2.307,5.4-15.93-.921.432m-7.416,5.968c.661-.342,2.351-1.22,3.381-1.756-.384,1.1-1.016,2.9-1.258,3.6C157.6,39.332,156.549,38.419,156.013,37.956Z" transform="translate(-30.981 -6.542)" fill="#fff"/>
  <path id="path3465" d="M136.806,92c-1.147-3.037-5.1-4.356-8.828-2.948a8.267,8.267,0,0,0-3.7,2.72c2.464-7.034,12.5-8.527,12.5-15.071,0-10.968-15.576-7.9-13.31,0,0-3.583,5.7-4.24,5.7,0s-9.944,7.022-9.944,14.186c0,7.9,7.9,8.629,7.1,15.852a3.52,3.52,0,0,1-3.414,2.882c-12.1,0-7.78-14.894-12.007-19.426l.221-3.06c2.444,1.5,8.928-2.012,4.659-7.364,0,2.632-5.48,2.486-5.48-2.486,0-6.728,6.29-3.217,6.6-1.732-.3-2.45-.415-4.005-.011-5.417-3.391,1.093-3.708-.867-3.279-1.625a2.919,2.919,0,0,1,2.469-1.9,2.523,2.523,0,0,1,1.4.274c.422.289.731-.371.671.243.363-.552.218.137.568-.417a11.515,11.515,0,0,1,1.681-2l-.036-1.241.988.362L122.3,62.3c-1.024-2.122-2.412-1.1-3.435-3.731-.855-.222-14.179,1.227-13.793-4.088-1.086,0-3.66.6-2.067,2.759-1.238.149-2.131-1.257-4,2.547,2.338-.438,1.128,2.176,1.128,2.919,0,4.819-6.416,4.738-6.416,2.481-1.546,1.5-.669,4.788,1.669,5.6A14.391,14.391,0,0,1,92.3,76.525c-3.259-.13-8.486-.7-11.493-3.539a10.348,10.348,0,0,0-3.2-2.236V69.158a12.351,12.351,0,0,0,4.156-3.6,7.017,7.017,0,0,0,1.593-5.081c-.022-.227-.055-.451-.1-.669-.012-.07-.029-.137-.045-.206-.032-.153-.069-.3-.114-.451-.021-.073-.041-.148-.064-.22-.05-.152-.1-.3-.163-.44-.025-.06-.042-.125-.071-.181-.081-.194-.172-.376-.27-.56-.042-.074-.086-.144-.127-.212-.067-.11-.131-.222-.2-.329-.057-.085-.117-.17-.178-.255s-.128-.165-.192-.247-.141-.18-.217-.267c-.05-.057-.1-.112-.158-.165a7.042,7.042,0,0,0-.611-.592c-.018-.015-.039-.035-.06-.051-.12-.1-.248-.2-.374-.294-.032-.024-.066-.048-.1-.073-.135-.1-.273-.188-.417-.277a.127.127,0,0,1-.023-.015A7.918,7.918,0,0,0,75.1,53.833,7.223,7.223,0,0,0,73.678,68.09a8.087,8.087,0,0,1-2.135.923c.033.021.076.046.124.076l.041.022c.041.026.089.053.138.08l.039.021c.067.034.137.069.215.107l.039.016c.069.032.14.066.214.094a.689.689,0,0,0,.067.026,5.566,5.566,0,0,0,.614.21c.032.009.066.016.094.025.091.023.184.044.279.067l.1.019c.121.022.247.043.374.058.011,0,.022.006.032.006v.906c-.047.01-.09.015-.135.022-1.369.225-2.258.647-2.66,1.865s.011,1.665.652,2.523c-.541.968-1.96,1.33-.109,3.468a2.122,2.122,0,0,0,1.211,2.484,6.557,6.557,0,0,0,1.04.257l0,16.033a4.357,4.357,0,0,0-2.071,2.118s-.941-2.089-.879,2.049c1.069-.83.648.961.648.961-1.456,1.886.393,1.784.393,1.784,1.254-1.253,1,.568,1,.568a4.329,4.329,0,0,0,.909,3.092v12.214l-1.065,0,.01,3.37,1.863,0a2.6,2.6,0,0,0-1.634,2.607,2.716,2.716,0,0,0,2.968,2.39,2.653,2.653,0,0,0,2.506-2.824,2.62,2.62,0,0,0-1.641-2.18l1.719,0-.007-3.37-1.025,0,0-10.837a2.541,2.541,0,0,0,.688.25,2.5,2.5,0,0,0,.3.039,1.038,1.038,0,0,0,.135.008,2.9,2.9,0,0,1,.575-2.369,4.6,4.6,0,0,1,1.788-1.532c2.151-1.079,5.086-.806,5.963.951,5.558-1.465,10.334-7.052,10.334-7.052l2.736,4.657c-5.8,1.939-18.435,12.923-9.665,16.727,0,1.107-.152,9.326-5.422,8.673-7.589-.935-9.482,2.205-8.025,5.735a3.353,3.353,0,0,0,1.607,4.01c-.344-1.719.483-3.144,3.619-3.126-.016,3.137,2.01,3.7,2.01,3.7a3.388,3.388,0,0,1,3.539-3.673c-.012,2.213,2.559,3.054,2.559,3.054a2.454,2.454,0,0,1,2.255-3.054c7.358-1.282.447-8.85,11.637-10.935,0,0-5.572-.84-5.572-3.886,0-2.773,5.044-4.668,6.78-4.668,3.561,6.8,7.43,6.858,8.445,6.907,1.577,1.762,1.049,7.7-1.228,7.583-8.335-.447-8.03,4.623-7.1,5.66a3.845,3.845,0,0,0,1.425,3.1c0-2.11,2.007-2.7,4.581-2.563-.135,2.577,1.507,2.962,1.507,2.962.045-2.593,1.964-3.033,3.327-2.962a2.4,2.4,0,0,0,1.7,2.353,2.106,2.106,0,0,1,2.251-2.307c4.607,0-2.084-9.876,6.908-19.64-7.9,3.656-12.1-5.483-12.1-7.237,4.06,4.75,17.221,5.7,17.221-2.416,0-7.752-8.52-10.641-4.534-13.606,2.318-1.724,6.878,1.759,4.269,5.357,3.741-1.386,5.825-5.009,4.681-8.044m-50.485.245c-2.978,1.751-4.974,3.966-7.689,4.935a2.561,2.561,0,0,1-1.027.167V82.217a17.15,17.15,0,0,1,4.768,1.225c2.161,1.179,2.161,3.617-.566,4.195,1.724,3.3,7.7,1.685,9-1,.638-.057,1.2,1.082,1.731,2.157C91.7,89.226,89.982,90.091,86.32,92.246Zm33.329-25.084c-.328.444-.65.886-.933,1.265a3.919,3.919,0,0,0,7.269-2.371c-.012-.078-.022-.149-.033-.225-.231,1.115-1.545,2.059-3.216,2.214a4,4,0,0,1-3.087-.883Z" transform="translate(-14.115 -11.155)" fill="#d1d3d4"/>
  <path id="path3467" d="M71.322,56.952s-.006.008-.006.013h0c.034-.08.069-.16.11-.238a1.987,1.987,0,0,0-.1.225m.137,63.465s.009,0,.01-.006h0s-.006,0-.009.006Zm-.094-69.925h0Zm-1.138,69.553,1.863,0a2.6,2.6,0,0,0-.62.369,1.638,1.638,0,0,1,.59-.114,1.691,1.691,0,1,1-1.6,2.2v.153a2.7,2.7,0,0,0,2.968,2.387,2.656,2.656,0,0,0,2.508-2.82,2.628,2.628,0,0,0-1.643-2.177l1.718-.007L76,116.661l-1.025.006V105.829a2.613,2.613,0,0,1-1.356-2.815,2.893,2.893,0,0,1,1.6.429c-.592,1.3.881,2.682.881,2.682a2.89,2.89,0,0,1,.574-2.366,4.652,4.652,0,0,1,1.788-1.535c2.154-1.08,5.087-.807,5.964.949,5.558-1.463,10.335-7.052,10.335-7.052l2.737,4.653c6.416,0,4.183-4.8,3.764-5.223a3.505,3.505,0,0,1,3.554,3.493c0,5.909-17.178,6.751-17.178,13.924,0,3.012,2.985,4.157,2.985,4.157,0,6.54-4.491,10.425-7.562,10.425-4.912,0-8.673-.995-8.673,4.361H76.1c-1.627,1.626-.109,4.012-.109,4.012-.343-1.717.487-3.139,3.622-3.124h1.957a2.817,2.817,0,0,0,.055,3.7,3.38,3.38,0,0,1,3.536-3.674h1.42c-.386.381.234,2.149,1.141,3.051a2.45,2.45,0,0,1,2.255-3.051c7.356-1.282.444-8.85,11.634-10.938,0,0-5.569-.838-5.569-3.887,0-2.768,5.041-4.668,6.775-4.668a10.9,10.9,0,0,1,3.782.093c.453,4.393,5.5,4.18,6.6,4.18,4.279,4.279-1.088,11.148-1.088,11.148-6.567,0-9.166.906-9.166,4.73h1.243c-.7.7-.3,2.625.178,3.105,0-2.111,2.011-2.7,4.585-2.565H110.3a2.415,2.415,0,0,0,.155,2.962c.038-2.594,1.96-3.034,3.325-2.962h1.128c-.422.427,0,1.779.579,2.358a2.109,2.109,0,0,1,2.249-2.311c4.609,0-2.086-9.876,6.911-19.64-7.9,3.658-12.1-5.484-12.1-7.238,4.06,4.752,17.225,5.7,17.225-2.412,0-6.546-6.072-9.622-5.569-12.206a3.874,3.874,0,1,1,5.3,3.944s0,0,0,0a.024.024,0,0,0-.008.015c3.737-1.386,5.825-5.01,4.684-8.045s-5.1-4.36-8.828-2.951a8.248,8.248,0,0,0-3.7,2.722c2.46-7.034,12.5-8.524,12.5-15.071,0-10.968-15.577-7.895-13.311,0a2.781,2.781,0,0,1,.022-.35c.4-4.464,8.378-5.377,8.378.443,0,4.972-10.221,7.728-10.221,14.417,0,6.87,7.55,8.588,7.55,15.818,0,.861-.455,4.568-5.47,4.568-4.84,0-7.166-2.705-8.488-6.235h0c-2.465-4.762-1.56-12.2-4.335-15.169l.22-3.057c2.445,1.5,8.931-2.014,4.671-7.365,0,2.635-5.485,2.485-5.485-2.485,0-6.728,6.286-3.217,6.592-1.733-.3-2.449-.42-4.008-.007-5.415-3.394,1.09-3.707-.868-3.284-1.629.5-.879,1.153-1.9,2.472-1.9,1.906,0,1.785.7,1.685,1.685a14.281,14.281,0,0,1,2.629-3.585l-.036-1.244.983.365.956-1.536c-1.022-2.122-2.412-1.1-3.439-3.729-.852-.224-12.054-1.257-11.666-6.574-.991,0-3.69,3.418-1.864,5.248h-2.326c-1.244.147-4.147-.721-6.01,3.081,4.587-4.586,7.565,6.355-.884,6.355v0h0c-1.247,0-2.316-.517-2.388-1.4-.842,3.693,4.48,4.842,4.48,4.842,0,1.1-2.666,7.037-3.962,8.331.873.874,1.145,6.148-2.893,6.148,1.456-3.937-2.826-7.273-6.986-9.48h.006a11.962,11.962,0,0,1-2.135-1.054A45.319,45.319,0,0,0,74.98,68.73V65.644a12.374,12.374,0,0,0,4.156-3.6,7,7,0,0,0,1.591-5.081,5.525,5.525,0,0,0-.1-.67c-.01-.069-.026-.135-.041-.2-.034-.153-.071-.3-.115-.451-.02-.075-.041-.146-.067-.22-.048-.152-.1-.3-.16-.444-.025-.061-.046-.119-.071-.18-.083-.19-.175-.377-.271-.556-.038-.076-.086-.145-.126-.218-.067-.11-.133-.218-.2-.325-.058-.085-.117-.173-.179-.257s-.124-.165-.19-.243-.142-.183-.218-.27c-.05-.057-.1-.112-.156-.167a7.162,7.162,0,0,0-.611-.586c-.022-.017-.04-.041-.061-.057-.121-.1-.247-.2-.376-.291-.034-.022-.066-.051-.1-.074-.137-.1-.273-.187-.417-.277-.008,0-.017-.011-.025-.014a7.9,7.9,0,0,0-4.771-1.141,8.5,8.5,0,0,0-1.1.174c-2.423.929-4.186,3.764-4.186,7.121,0,3.163,1.568,5.86,3.773,6.936.03.008.062.021.094.028a8.11,8.11,0,0,1-2.138.924c.034.022.079.046.126.078l.039.02c.042.024.087.049.14.078a.231.231,0,0,0,.04.019c.063.034.136.073.212.11a.133.133,0,0,1,.039.018c.067.031.139.06.217.092l.064.027a6.247,6.247,0,0,0,.618.209c.031.007.062.016.094.025.088.023.181.044.277.064.032.009.066.014.1.021.121.023.245.044.375.06a.048.048,0,0,1,.028.008,7.217,7.217,0,0,0,1.751-.133v1.79a5.05,5.05,0,0,1-1.751-.752l-.135.023c-1.366.224-2.256.644-2.657,1.864s.011,1.665.651,2.523c-.545.964-1.96,1.328-.112,3.468A2.131,2.131,0,0,0,70.242,77.6a6.8,6.8,0,0,0,1.04.255,1.864,1.864,0,0,1,1.751,2.026V93.659c.634.037,1.321.122,1.946.176V78.7a17.3,17.3,0,0,1,4.766,1.224.559.559,0,0,1,.066.041s0,0,0,0a3.671,3.671,0,0,1,.6.127c1.451.446,2.354,1.705,2.016,2.82s-1.8,1.655-3.244,1.21c1.721,3.3,7.7,1.687,9-1,.634-.057,1.2,1.082,1.73,2.156a16.365,16.365,0,0,0,5.2.573s-15,9.58-19.344,9.58c-1.854,0-5.967,0-5.967,1.4-1.13,0-2.76,1.921-2.76,3.019a3.481,3.481,0,0,1,1.939-.834,3.27,3.27,0,0,1,1.424.272c-.334.33-1.831,2.019-1.831,3.332,1.254-1.256,1.8-1.251,1.8-1.251s1.31-.169,1.777.3a4.577,4.577,0,0,0-.868,2.793s.778-1.5,1.751-1.5v14.4c0,.44-1.987.862-2.806.862m.61-41.755c-.37.014-.546-.467-.549-.641s.13-.666.5-.68a6.152,6.152,0,0,1,2.644.565,6.121,6.121,0,0,1-2.594.756Zm-.567-2.377c-.51-.036-.678-.725-.661-.967s.284-.9.794-.859c1.217.091,3.575.939,3.555,1.179S71.486,74.183,70.271,74.093Zm-.209-3.046c-.54-.142-.584-.915-.519-1.17s.485-.906,1.027-.765c1.286.337,3.651,1.72,3.583,1.974s-2.8.3-4.091-.038Zm3.985-8.582a3.517,3.517,0,0,0,.037-1.946l-.07,0a2.8,2.8,0,0,1-2.8-2.8,1.71,1.71,0,0,1,.1-.756h0a.019.019,0,0,1,.006-.013,2.8,2.8,0,0,1,5.493.769c0,1.786-1.258,3.43-2.769,4.745Z" transform="translate(-13.898 -10.05)" fill="#034694"/>
  <path id="path3469" d="M128.918,68.531a3.918,3.918,0,0,0,7.267-2.373c-.008-.076-.022-.15-.032-.226-.228,1.114-1.549,2.06-3.217,2.215a4.005,4.005,0,0,1-3.089-.883c-.326.446-.652.887-.929,1.266" transform="translate(-26.725 -13.668)" fill="#ed1c24"/>
  <path id="path3471" d="M121.444,60.045l1.353.071-.677.928s-.9.286-.676-1m-3.227,0h1.949s-.07,1.573,1.353,1.714l-.3.5S117.392,61.26,118.217,60.045Z" transform="translate(-24.482 -12.448)" fill="#fff"/>
  <path id="path3473" d="M73.74,71.086c.067-.254-2.3-1.637-3.583-1.974-.542-.14-.959.511-1.027.765s-.021,1.028.519,1.17c1.287.337,4.026.293,4.091.038m-.194,2.36c.02-.24-2.338-1.088-3.555-1.179-.509-.037-.778.621-.794.859s.151.931.661.967C71.073,74.184,73.531,73.69,73.546,73.446ZM70.869,66.33v.9a5.044,5.044,0,0,0,1.751.752V66.2A7.206,7.206,0,0,1,70.869,66.33Zm-.494,8.819c-.369.015-.508.5-.5.68s.179.655.549.641a6.111,6.111,0,0,0,2.594-.757,6.154,6.154,0,0,0-2.644-.565ZM68.566,99.015a3.246,3.246,0,0,0-.407,3.6c0-1.312,1.5-3,1.831-3.332A3.274,3.274,0,0,0,68.566,99.015Zm4.64,4a2.62,2.62,0,0,0,2.044,3.061,2.706,2.706,0,0,0,.3.048l.133,0s-1.473-1.379-.881-2.682a2.885,2.885,0,0,0-1.6-.43ZM70.544,64.549c-2.205-1.076-3.773-3.773-3.773-6.936,0-3.356,1.763-6.192,4.186-7.121a7.186,7.186,0,0,0-.412,14.056Zm23.413-7.741a2.565,2.565,0,0,1,3.134,2.385,3.839,3.839,0,0,1-4.019,3.969v0c8.449,0,5.471-10.942.884-6.355ZM88.31,81.088c4.038,0,3.766-5.274,2.893-6.148,1.3-1.295,3.962-7.234,3.962-8.331,0,0-5.329-1.149-4.478-4.848a.011.011,0,0,1,0-.007l-.071-.013c-1.452,1.532-.569,4.729,1.735,5.526a14.394,14.394,0,0,1-3.085,5.743,25.772,25.772,0,0,1-7.939-1.4c4.159,2.207,8.442,5.543,6.985,9.48ZM72.536,55.766a1.877,1.877,0,0,1,2.053,1.654,1.841,1.841,0,0,1-1.737,1.953A1.871,1.871,0,0,1,70.8,57.721a2.8,2.8,0,0,0,2.8,2.8l.07,0a3.518,3.518,0,0,1-.037,1.946c1.512-1.315,2.769-2.959,2.769-4.745a2.8,2.8,0,0,0-5.5-.756,1.894,1.894,0,0,1,1.633-1.2Zm29.757-2.039c-1.826-1.829.873-5.248,1.864-5.248-1.084,0-5.786,3.078-4.19,5.248ZM78.767,84.12c1.448.445,2.9-.1,3.244-1.21S81.446,80.536,80,80.09a3.675,3.675,0,0,0-.6-.127c2.1,1.195,2.071,3.591-.627,4.158Zm-4.2-15.39a45.322,45.322,0,0,1,4.629,1.823,8.948,8.948,0,0,1-1.426-1.083,10.261,10.261,0,0,0-3.2-2.232v1.492h0Zm.787,26.7c4.34,0,19.344-9.58,19.344-9.58a16.368,16.368,0,0,1-5.2-.573c-.837.436-2.554,1.3-6.213,3.453-2.978,1.753-4.974,3.969-7.689,4.937a2.529,2.529,0,0,1-1.026.169c-.625-.054-1.312-.139-1.946-.176V79.88a1.864,1.864,0,0,0-1.751-2.026V93.888A4.336,4.336,0,0,0,68.8,96.006s-2.237-.3-2.173,3.843c0-1.1,1.63-3.019,2.76-3.019C69.386,95.428,73.5,95.428,75.353,95.428Zm37.427,22.18c-1.1,0-6.143.213-6.6-4.18a10.913,10.913,0,0,0-3.782-.093c3.566,6.8,7.436,6.859,8.449,6.911,1.576,1.758,1.048,7.7-1.229,7.576-8.335-.444-8.03,4.627-7.1,5.664,0-3.824,2.6-4.73,9.166-4.73C111.692,128.757,117.059,121.888,112.78,117.609Zm1.714,16.419h-1.128a2.411,2.411,0,0,0,1.708,2.358C114.494,135.807,114.072,134.454,114.494,134.028Zm-10.548,2.565c-.48-.48-.875-2.405-.178-3.105h-1.243A3.851,3.851,0,0,0,103.947,136.593Zm24.881-63.309c0-5.821-7.983-4.907-8.378-.437.352-3.276,5.686-3.76,5.686.344,0,4.241-9.948,7.019-9.948,14.186,0,7.9,7.9,8.629,7.1,15.849a3.516,3.516,0,0,1-3.413,2.883c-4.157,0-6.382-1.764-7.675-4.258,1.322,3.53,3.647,6.236,8.488,6.236,5.015,0,5.47-3.707,5.47-4.568,0-7.229-7.55-8.948-7.55-15.818,0-6.69,10.221-9.446,10.221-14.418ZM69.959,101.368a4.342,4.342,0,0,0,.909,3.094,4.577,4.577,0,0,1,.868-2.793C71.27,101.2,69.959,101.368,69.959,101.368Zm57.686-12.32a3.873,3.873,0,0,0-3.86,3.529,2.369,2.369,0,0,1,1.027-1.4c2.322-1.726,6.872,1.75,4.276,5.342a3.877,3.877,0,0,0-1.443-7.473Zm-17.76,44.98h-1.354c-.138,2.575,1.509,2.962,1.509,2.962a2.416,2.416,0,0,1-.155-2.962ZM71.646,120.3a1.644,1.644,0,0,0-.591.114,2.527,2.527,0,0,0-1.012,2.085,1.687,1.687,0,1,0,1.6-2.2Zm9.509,12.5H79.2c-.017,3.136,2.011,3.7,2.011,3.7a2.818,2.818,0,0,1-.055-3.7Zm6.067-19.831c0-7.173,17.178-8.015,17.178-13.924a3.505,3.505,0,0,0-3.554-3.493c.418.419,2.652,5.223-3.764,5.223-5.8,1.942-18.436,12.924-9.667,16.732,0,1.1-.153,9.323-5.42,8.677-7.588-.939-9.481,2.2-8.024,5.728,0-5.356,3.761-4.361,8.673-4.361,3.072,0,7.562-3.884,7.562-10.425C90.208,117.125,87.223,115.98,87.223,112.968Zm-14.6,4.4v-14.4c-.974,0-1.751,1.5-1.751,1.5v12.209l-1.064,0,.009,1.551c.818,0,2.806-.423,2.806-.862Zm2.957,18.559s-1.519-2.386.109-4.012H73.973a3.352,3.352,0,0,0,1.6,4.012Zm10.59-3.093h-1.42c-.011,2.213,2.561,3.051,2.561,3.051C86.4,134.98,85.78,133.211,86.166,132.83Z" transform="translate(-13.484 -10.05)" fill="#6a7ab5"/>
  <line id="line3475" transform="translate(142.492 66.561)" fill="none"/>
  <path id="path3477" d="M27.2,122.981l-.095-.291-.041-.3c-.139-1.036-.389-2.965-1.879-3.31a2.016,2.016,0,0,0-1.249.136,2.021,2.021,0,0,0-.038-1.254c-.549-1.428-2.493-1.41-3.538-1.4h-.307l-.3-.056c-1.026-.189-2.94-.546-3.725.764a2.012,2.012,0,0,0-.259,1.227,2.008,2.008,0,0,0-1.2-.352c-1.529.081-2.113,1.936-2.426,2.935l-.1.29-.142.269c-.5.92-1.43,2.625-.427,3.78a2,2,0,0,0,1.089.624,2,2,0,0,0-.7,1.041c-.4,1.475,1.186,2.6,2.035,3.207l.249.184.214.217c.719.761,2.056,2.17,3.463,1.573a2.028,2.028,0,0,0,.929-.842,2.048,2.048,0,0,0,.771.991c1.282.83,2.843-.327,3.683-.944l.248-.182.276-.135c.943-.452,2.7-1.285,2.568-2.809a2.007,2.007,0,0,0-.512-1.143,2,2,0,0,0,1.175-.427c1.19-.962.571-2.8.238-3.8" transform="translate(-2.287 -24.113)" fill="#fff"/>
  <path id="path3479" d="M22.983,125.162c8.552,5.055,5.918-.5,5.73-1.326s-.261-6.968-5.73,1.326" transform="translate(-4.764 -25.058)" fill="#ed1c24"/>
  <path id="path3481" d="M22.152,127.879c-2.164,9.692,2.308,5.473,3.029,5.043s6.546-2.4-3.029-5.043" transform="translate(-4.471 -26.51)" fill="#ed1c24"/>
  <path id="path3483" d="M19.031,127.731c-9.89.933-4.492,3.885-3.858,4.436s4.306,5.484,3.858-4.436" transform="translate(-2.723 -26.479)" fill="#ed1c24"/>
  <path id="path3485" d="M18.52,124.732c-3.947-9.116-5.086-3.071-5.415-2.294s-3.887,5.789,5.415,2.294" transform="translate(-2.522 -24.826)" fill="#ed1c24"/>
  <path id="path3487" d="M194.267,121.642l-.141-.269-.1-.29c-.313-1-.9-2.853-2.422-2.935a2.022,2.022,0,0,0-1.2.349,2.044,2.044,0,0,0-.258-1.224c-.789-1.311-2.7-.954-3.726-.765l-.306.056h-.306c-1.041-.014-2.986-.031-3.533,1.4a2,2,0,0,0-.043,1.253,2.007,2.007,0,0,0-1.246-.135c-1.488.344-1.744,2.274-1.876,3.31l-.046.3-.092.291c-.334.991-.952,2.833.238,3.8a1.993,1.993,0,0,0,1.175.427,2.01,2.01,0,0,0-.512,1.143c-.132,1.523,1.623,2.357,2.568,2.809l.273.135.248.182c.843.618,2.405,1.775,3.683.944a2.011,2.011,0,0,0,.771-.991,2.027,2.027,0,0,0,.931.842c1.407.6,2.745-.813,3.463-1.574l.216-.217.246-.184c.852-.6,2.436-1.732,2.038-3.207a2.011,2.011,0,0,0-.7-1.041,2,2,0,0,0,1.087-.624c1.005-1.155.078-2.86-.427-3.78" transform="translate(-37.006 -24.113)" fill="#fff"/>
  <path id="path3489" d="M187.894,123.547c-7.448-6.57-1.349-5.786-.511-5.86s6.708-1.9.511,5.86" transform="translate(-38.193 -24.347)" fill="#ed1c24"/>
  <path id="path3491" d="M185.9,125.162c-8.552,5.055-5.923-.5-5.732-1.326s.258-6.968,5.732,1.326" transform="translate(-37.241 -25.058)" fill="#ed1c24"/>
  <path id="path3493" d="M186.795,127.879c2.165,9.692-2.307,5.473-3.03,5.043s-6.544-2.4,3.03-5.043" transform="translate(-37.595 -26.51)" fill="#ed1c24"/>
  <path id="path3495" d="M189.938,127.731c9.89.933,4.5,3.885,3.86,4.436s-4.308,5.484-3.86-4.436" transform="translate(-39.367 -26.479)" fill="#ed1c24"/>
  <path id="path3497" d="M190.336,124.732c3.95-9.116,5.086-3.071,5.416-2.294s3.886,5.789-5.416,2.294" transform="translate(-39.457 -24.826)" fill="#ed1c24"/>
  <path id="path3499" d="M190.732,125.213c-.009-.079-.035-.15-.046-.227.794-.583,1.652-1.208,1.652-1.208l-.082-.185-1.961.342a2.966,2.966,0,0,0-2.243-1.417c-.3-.9-.6-1.812-.6-1.812l-.2.017s-.135.953-.271,1.886a2.951,2.951,0,0,0-1.491.951,3.115,3.115,0,0,0-.483.836c-.967,0-1.989,0-1.989,0l-.043.2,1.833.895c0,.08-.007.16,0,.241a2.937,2.937,0,0,0,1.016,1.979c-.309.966-.657,2.046-.657,2.046l.17.1s.8-.831,1.517-1.565a2.92,2.92,0,0,0,1.172.135,2.954,2.954,0,0,0,1.136-.333c.828.6,1.762,1.272,1.762,1.272l.153-.132s-.53-1-1-1.9a2.97,2.97,0,0,0,.656-2.131" transform="translate(-37.931 -25.023)" fill="#fff"/>
  <path id="path3501" d="M188.411,124.513a1.713,1.713,0,0,0-1.193.62,1.731,1.731,0,0,0-.4,1.279,1.757,1.757,0,1,0,1.6-1.9" transform="translate(-38.725 -25.81)" fill="#ed1c24"/>
  <path id="path3503" d="M20.938,123.547c7.45-6.57,1.348-5.786.512-5.86s-6.711-1.9-.512,5.86" transform="translate(-3.758 -24.347)" fill="#ed1c24"/>
  <path id="path3505" d="M23.263,125.494c.886-.43,1.834-.9,1.834-.9l-.044-.2s-1.02,0-1.989,0a2.99,2.99,0,0,0-.481-.835,2.951,2.951,0,0,0-1.492-.952l-.268-1.886-.2-.017s-.3.914-.591,1.812a2.967,2.967,0,0,0-2.25,1.417l-1.963-.342-.078.185s.856.625,1.65,1.208c-.013.077-.036.148-.044.227A2.963,2.963,0,0,0,18,127.343c-.476.9-1.005,1.9-1.005,1.9l.157.132s.932-.676,1.76-1.272a3,3,0,0,0,1.135.333,2.912,2.912,0,0,0,1.174-.135c.712.734,1.514,1.565,1.514,1.565l.176-.1-.66-2.043a2.963,2.963,0,0,0,1.016-1.982,2.28,2.28,0,0,0,0-.24" transform="translate(-3.262 -25.023)" fill="#fff"/>
  <path id="path3507" d="M22.385,125.133a1.71,1.71,0,0,0-1.194-.62,1.755,1.755,0,1,0,1.194.62" transform="translate(-3.997 -25.81)" fill="#ed1c24"/>
  <path id="path3509" d="M20.692,72.972a7.672,7.672,0,1,0,6.224,8.887,7.682,7.682,0,0,0-6.224-8.887" transform="translate(-2.423 -15.103)" fill="#fff"/>
  <path id="path3511" d="M22.973,79.354c-.067-.041-.185-.117-.327-.211-.629-.417-1.863-1.233-1.9-1.257-.171-.117-.337-.229-.5-.34-.548-.367-1.039-.687-1.5-.953-.178-.1-.35-.2-.523-.28a6.016,6.016,0,0,0-2.266-.667,6.808,6.808,0,0,0-1.644,1.695c1.908.689,3.77,1.792,7.648,4.2.222-.513.964-2.092,1.009-2.188" transform="translate(-2.968 -15.682)" fill="#ed1c24"/>
  <path id="path3513" d="M20.932,84.04c.078-.193.418-1.056.558-1.388-3.974-2.469-5.82-3.561-7.732-4.237a6.684,6.684,0,0,0-.664,1.732c1.091,1.5,4.016,2.97,7.837,3.894" transform="translate(-2.714 -16.256)" fill="#ed1c24"/>
  <path id="path3515" d="M22.028,77.089a5.34,5.34,0,0,1,4.484-.2,6.757,6.757,0,0,0-1.761-1.605,5.188,5.188,0,0,0-4.291.794c.493.29,1,.627,1.568,1.007" transform="translate(-4.241 -15.578)" fill="#ed1c24"/>
  <path id="path3517" d="M14.516,85.523c.2.137.4.267.62.388a10.03,10.03,0,0,0,1.4.631c.208.079.419.152.632.22.745.245,2.456.69,2.584.719l.91-2.253c-2.963-.735-6.207-2.021-7.749-3.694a6.674,6.674,0,0,0,.107,2.261,4.327,4.327,0,0,0,1.494,1.727" transform="translate(-2.667 -16.902)" fill="#ed1c24"/>
  <path id="path3519" d="M21.043,89.645l-.618-.159c-.573-.146-1.195-.309-1.827-.5a4.3,4.3,0,0,0,1.31,1.565,6.727,6.727,0,0,0,2.033-.039,7.2,7.2,0,0,1-.9-.864" transform="translate(-3.855 -18.446)" fill="#ed1c24"/>
  <path id="path3521" d="M28.177,79.549a6.76,6.76,0,0,0-.558-1.321,5.438,5.438,0,0,0-4.5-.27l2.143,1.415a10.94,10.94,0,0,1,1.234-.043c.205,0,.4.014.578.032a6.931,6.931,0,0,1,1.1.187" transform="translate(-4.792 -16.081)" fill="#ed1c24"/>
  <path id="path3523" d="M27.291,80.561A12.742,12.742,0,0,1,24.137,88.5,6.717,6.717,0,0,0,28.55,80.81a6.381,6.381,0,0,0-1.259-.249" transform="translate(-5.004 -16.7)" fill="#ed1c24"/>
  <path id="path3525" d="M19.275,75.552a5.008,5.008,0,0,1,3.28-1.207,6.2,6.2,0,0,0-.854-.215,6.7,6.7,0,0,0-4.376.716,7.174,7.174,0,0,1,1.95.707" transform="translate(-3.591 -15.346)" fill="#ed1c24"/>
  <path id="path3527" d="M25.157,80.554c-.51,1.062-.809,1.712-1.058,2.3-.076.179-.151.353-.226.534-.119.3-.485,1.218-.485,1.218l-.218.541L22.224,87.5a4.031,4.031,0,0,0,.888.849,12.268,12.268,0,0,0,3.209-7.827,9.517,9.517,0,0,0-1.164.037" transform="translate(-4.607 -16.69)" fill="#ed1c24"/>
  <path id="path3529" d="M17.34,88.542a12.361,12.361,0,0,1-1.388-.565,6.3,6.3,0,0,0,.647,1.361,6.713,6.713,0,0,0,1.65.762,4.3,4.3,0,0,1-.909-1.558" transform="translate(-3.307 -18.238)" fill="#ed1c24"/>
  <path id="path3531" d="M14.842,87.332a6.664,6.664,0,0,1-.893-.64A6.768,6.768,0,0,0,15.11,88.21a5.565,5.565,0,0,1-.268-.878" transform="translate(-2.892 -17.971)" fill="#ed1c24"/>
  <path id="path3533" d="M178.544,81.86a7.673,7.673,0,1,0,6.223-8.887,7.682,7.682,0,0,0-6.223,8.887" transform="translate(-36.988 -15.103)" fill="#fff"/>
  <path id="path3535" d="M184.235,79.354c.066-.041.184-.117.329-.211.63-.417,1.861-1.233,1.893-1.257l.5-.34c.543-.367,1.037-.687,1.5-.953.177-.1.351-.2.521-.28a6.018,6.018,0,0,1,2.266-.667,6.69,6.69,0,0,1,1.64,1.695c-1.906.689-3.763,1.792-7.646,4.2-.223-.513-.961-2.092-1.007-2.188" transform="translate(-38.192 -15.682)" fill="#ed1c24"/>
  <path id="path3537" d="M186.348,84.04c-.079-.193-.422-1.056-.554-1.388,3.967-2.469,5.818-3.561,7.728-4.237a6.759,6.759,0,0,1,.664,1.732c-1.093,1.5-4.017,2.97-7.838,3.894" transform="translate(-38.515 -16.256)" fill="#ed1c24"/>
  <path id="path3539" d="M185.862,77.089a5.345,5.345,0,0,0-4.486-.2,6.791,6.791,0,0,1,1.765-1.605,5.178,5.178,0,0,1,4.287.794c-.489.29-1,.627-1.566,1.007" transform="translate(-37.6 -15.578)" fill="#ed1c24"/>
  <path id="path3541" d="M192.915,85.523a6.746,6.746,0,0,1-.619.388,9.926,9.926,0,0,1-1.4.631c-.21.079-.422.152-.635.22-.742.245-2.454.69-2.583.719-.029-.066-.671-1.651-.91-2.253,2.962-.735,6.2-2.021,7.75-3.694a6.755,6.755,0,0,1-.108,2.261,4.315,4.315,0,0,1-1.5,1.727" transform="translate(-38.718 -16.902)" fill="#ed1c24"/>
  <path id="path3543" d="M187.559,89.645l.614-.159c.575-.146,1.2-.309,1.833-.5a4.356,4.356,0,0,1-1.311,1.565,6.709,6.709,0,0,1-2.031-.039,7.536,7.536,0,0,0,.9-.864" transform="translate(-38.696 -18.446)" fill="#ed1c24"/>
  <path id="path3545" d="M179.974,79.549a6.5,6.5,0,0,1,.561-1.321,5.422,5.422,0,0,1,4.495-.27l-2.141,1.415a10.962,10.962,0,0,0-1.236-.043c-.2,0-.394.014-.579.032a6.941,6.941,0,0,0-1.1.187" transform="translate(-37.309 -16.081)" fill="#ed1c24"/>
  <path id="path3547" d="M180.994,80.561a12.726,12.726,0,0,0,3.158,7.938,6.739,6.739,0,0,1-4.45-5.2,6.64,6.64,0,0,1,.035-2.488,6.346,6.346,0,0,1,1.257-.249" transform="translate(-37.232 -16.7)" fill="#ed1c24"/>
  <path id="path3549" d="M188.833,75.552a5.016,5.016,0,0,0-3.281-1.207,6.071,6.071,0,0,1,.855-.215,6.7,6.7,0,0,1,4.374.716,7.167,7.167,0,0,0-1.947.707" transform="translate(-38.465 -15.346)" fill="#ed1c24"/>
  <path id="path3551" d="M183.246,80.554c.511,1.062.805,1.712,1.062,2.3.074.179.145.353.22.534.121.3.487,1.218.487,1.218l.217.541.948,2.344a4.047,4.047,0,0,1-.888.849,12.249,12.249,0,0,1-3.208-7.827,9.489,9.489,0,0,1,1.162.037" transform="translate(-37.746 -16.69)" fill="#ed1c24"/>
  <path id="path3553" d="M191.534,88.542a12.678,12.678,0,0,0,1.389-.565,6.371,6.371,0,0,1-.651,1.361,6.721,6.721,0,0,1-1.647.762,4.315,4.315,0,0,0,.909-1.558" transform="translate(-39.517 -18.238)" fill="#ed1c24"/>
  <path id="path3555" d="M194.33,87.332a7.019,7.019,0,0,0,.891-.64,6.735,6.735,0,0,1-1.16,1.518,6.181,6.181,0,0,0,.269-.878" transform="translate(-40.229 -17.971)" fill="#ed1c24"/>
</svg>
