<svg id="Group_4435" data-name="Group 4435" xmlns="http://www.w3.org/2000/svg" xmlns:xlink="http://www.w3.org/1999/xlink" width="139.61" height="167.663" viewBox="0 0 139.61 167.663">
  <defs>
    <clipPath id="clip-path">
      <rect id="Rectangle_6315" data-name="Rectangle 6315" width="139.61" height="167.663" fill="none"/>
    </clipPath>
  </defs>
  <g id="Group_4434" data-name="Group 4434" clip-path="url(#clip-path)">
    <path id="Path_14230" data-name="Path 14230" d="M81.316,173.731C8.275,129.416,13.793,59.253,19.323,40.453,28.543,29.26,56.23,16.39,81.316,16.39s52.775,12.87,61.992,24.063c5.531,18.8,11.049,88.963-61.992,133.279" transform="translate(-11.511 -11.654)" fill="#ffd600"/>
    <path id="Path_14231" data-name="Path 14231" d="M69.8,167.663l-2.586-1.569c-17.446-10.585-31.8-23.416-42.659-38.135A124.821,124.821,0,0,1,4.633,87.1,126.634,126.634,0,0,1,.015,51.253C.21,38.678,2.251,30.452,3.12,27.5l.269-.915L4,25.842C9.175,19.561,19,13.134,30.953,8.211,43.809,2.917,57.607,0,69.8,0s26,2.916,38.854,8.21c11.954,4.923,21.777,11.349,26.95,17.631l.612.742.269.914c.869,2.953,2.91,11.179,3.105,23.753a126.648,126.648,0,0,1-4.617,35.85,124.821,124.821,0,0,1-19.927,40.856c-10.86,14.72-25.213,27.55-42.66,38.135ZM12.242,31.039c-2.5,9.341-4.7,30.131,1.815,53.6a115.5,115.5,0,0,0,18.438,37.806c9.576,12.979,22.118,24.412,37.31,34.016,15.193-9.6,27.735-21.037,37.311-34.016a115.5,115.5,0,0,0,18.438-37.806c6.515-23.471,4.313-44.259,1.814-53.6C118.112,20.71,92.083,9.473,69.8,9.473S21.5,20.71,12.242,31.039" transform="translate(0 -0.001)" fill="#004893"/>
    <path id="Path_14232" data-name="Path 14232" d="M81.316,173.731C8.275,129.416,13.793,59.253,19.323,40.453,28.543,29.26,56.23,16.39,81.316,16.39s52.775,12.87,61.992,24.063c5.531,18.8,11.049,88.963-61.992,133.279" transform="translate(-11.511 -11.654)" fill="#ffd600"/>
    <path id="Path_14233" data-name="Path 14233" d="M26.239,40.453C35.459,29.261,63.146,16.39,88.231,16.39s52.775,12.871,61.992,24.063c5.531,18.8,11.049,88.963-61.992,133.279" transform="translate(-18.427 -11.654)" fill="#ffd600"/>
    <path id="Path_14234" data-name="Path 14234" d="M199.659,296.949l3.578,3.244q3.236,2.235,6.78,4.4c2.409-1.46,4.694-2.953,6.887-4.47l3.5-3.169V225.807H199.659Z" transform="translate(-140.212 -160.558)" fill="#fff"/>
    <path id="Path_14235" data-name="Path 14235" d="M117.244,110.384H67.533s-.058-16.435,2.247-19.791c6.682-8.73,27.59-17.654,47.464-17.654s40.779,8.924,47.467,17.654c2.3,3.356,2.242,19.791,2.242,19.791Z" transform="translate(-47.425 -51.862)" fill="#004893"/>
    <path id="Path_14236" data-name="Path 14236" d="M300.147,225.769l25.008,26.813a84.511,84.511,0,0,0,3.019-10.52l-15.2-16.293Z" transform="translate(-210.781 -160.531)" fill="#004893"/>
    <path id="Path_14237" data-name="Path 14237" d="M375.9,225.769l6.924,7.424c.289-2.585.44-5.066.487-7.424Z" transform="translate(-263.98 -160.531)" fill="#004893"/>
    <path id="Path_14238" data-name="Path 14238" d="M292.371,420.676v9.394q2.481-2.139,4.724-4.328Z" transform="translate(-205.32 -299.118)" fill="#004893"/>
    <path id="Path_14239" data-name="Path 14239" d="M292.371,336.979v13.755l9.652,10.345q3.255-3.657,5.954-7.372Z" transform="translate(-205.32 -239.606)" fill="#004893"/>
    <path id="Path_14240" data-name="Path 14240" d="M292.371,253.278v13.756l19.664,21.08a88.893,88.893,0,0,0,4.683-8.731Z" transform="translate(-205.32 -180.091)" fill="#004893"/>
    <path id="Path_14241" data-name="Path 14241" d="M102.732,225.769,77.724,252.582a85.027,85.027,0,0,1-3.022-10.52l15.2-16.293Z" transform="translate(-52.46 -160.531)" fill="#004893"/>
    <path id="Path_14242" data-name="Path 14242" d="M75.6,225.769l-6.929,7.424c-.284-2.585-.434-5.066-.486-7.424Z" transform="translate(-47.882 -160.531)" fill="#004893"/>
    <path id="Path_14243" data-name="Path 14243" d="M165.464,420.676v9.394q-2.478-2.139-4.724-4.328Z" transform="translate(-112.881 -299.118)" fill="#004893"/>
    <path id="Path_14244" data-name="Path 14244" d="M139.8,336.979v13.755l-9.648,10.345q-3.263-3.657-5.955-7.372Z" transform="translate(-87.222 -239.606)" fill="#004893"/>
    <path id="Path_14245" data-name="Path 14245" d="M119.187,253.278v13.756l-19.658,21.08a87.07,87.07,0,0,1-4.686-8.731Z" transform="translate(-66.604 -180.091)" fill="#004893"/>
    <path id="Path_14246" data-name="Path 14246" d="M211.225,99.421a11.081,11.081,0,0,0-4.53-8.2,11.785,11.785,0,0,0-9.469-1.637,11.791,11.791,0,0,0-9.435,1.645,11.077,11.077,0,0,0-4.527,8.239,10.872,10.872,0,0,0-1.306,9.216,11.319,11.319,0,0,0,6.673,6.726,11.208,11.208,0,0,0,17.276-.029,11.294,11.294,0,0,0,6.639-6.712,10.877,10.877,0,0,0-1.321-9.248m-13.973,4.43v0h0v0l0,0Z" transform="translate(-127.423 -63.458)" fill="#fff"/>
    <path id="Path_14247" data-name="Path 14247" d="M231.158,83.23l1.418-2.94-1.418-4.069-1.422,4.069Z" transform="translate(-161.334 -54.196)" fill="#fff"/>
    <path id="Path_14248" data-name="Path 14248" d="M180.647,122.2l-2.442-2.219-4.548.007,3.669,2.615Z" transform="translate(-121.953 -85.308)" fill="#fff"/>
    <path id="Path_14249" data-name="Path 14249" d="M201.072,171.6l-2.932,1.57-1.459,4.284,3.76-2.663Z" transform="translate(-138.121 -122.013)" fill="#fff"/>
    <path id="Path_14250" data-name="Path 14250" d="M257.629,171.586l.631,3.189,3.726,2.624-1.425-4.245Z" transform="translate(-180.922 -122.005)" fill="#fff"/>
    <path id="Path_14251" data-name="Path 14251" d="M271.9,122.169l3.319.405,3.628-2.6-4.506-.02Z" transform="translate(-190.942 -85.29)" fill="#fff"/>
    <path id="Path_14252" data-name="Path 14252" d="M233.018,87.539s.626-.194.626-1.316a28.477,28.477,0,0,0-.626-3.924,28.19,28.19,0,0,0-.633,3.924c0,1.123.633,1.316.633,1.316" transform="translate(-163.194 -58.517)" fill="#004893"/>
    <path id="Path_14253" data-name="Path 14253" d="M257.276,171.159s-.391.516.284,1.424a29.733,29.733,0,0,0,2.895,2.815,29.415,29.415,0,0,0-1.866-3.536c-.683-.908-1.313-.7-1.313-.7" transform="translate(-180.595 -121.687)" fill="#004893"/>
    <path id="Path_14254" data-name="Path 14254" d="M271.737,123.463s.382.523,1.485.176a30.277,30.277,0,0,0,3.649-1.8,30.724,30.724,0,0,0-4.04.631c-1.1.347-1.095.99-1.095.99" transform="translate(-190.83 -86.635)" fill="#004893"/>
    <path id="Path_14255" data-name="Path 14255" d="M201.856,116.67a9.727,9.727,0,1,1,9.723,9.436,9.584,9.584,0,0,1-9.723-9.436" transform="translate(-141.755 -76.246)" fill="#004893"/>
    <path id="Path_14256" data-name="Path 14256" d="M208.79,105.226a.847.847,0,0,0,.957.511c1.1-.214-.32-.727,3.094-1.8,1.095-.347,2.374-.24,2.9.875a2.34,2.34,0,0,1-.579,2.845,9.01,9.01,0,0,0-1.568,3.125v0s-.874,2.35-.624,3.415a2.359,2.359,0,0,1-1.253,2.634,2.25,2.25,0,0,1-2.878-.946c-2.107-2.817-.662-2.381-1.424-3.183a.849.849,0,0,0-1.077-.125.809.809,0,0,0-.2,1.041c.55.952.59-.533,2.7,2.284.677.905.965,2.116.037,2.949a2.512,2.512,0,0,1-2.966.341,9.718,9.718,0,0,0-3.547-.48h0a9.682,9.682,0,0,0-3.54.48,2.512,2.512,0,0,1-2.967-.342c-.932-.832-.64-2.043.037-2.948,2.108-2.818,2.151-1.333,2.7-2.285a.79.79,0,0,0-.21-1.03.862.862,0,0,0-1.083.132c-.762.8.683.365-1.427,3.183a2.244,2.244,0,0,1-2.876.945,2.358,2.358,0,0,1-1.254-2.634c.251-1.065-.623-3.421-.623-3.421l0,0s-.718-2.4-1.565-3.12a2.337,2.337,0,0,1-.582-2.844c.526-1.117,1.8-1.224,2.9-.878,3.409,1.074,1.99,1.588,3.093,1.8a.836.836,0,0,0,.948-.514.813.813,0,0,0-.467-.958c-1.023-.457-.169.728-3.581-.348-1.1-.345-2.066-1.162-1.814-2.365a2.432,2.432,0,0,1,2.19-1.971,9.451,9.451,0,0,0,3.163-1.632h0s2.129-1.405,2.575-2.409a2.463,2.463,0,0,1,2.609-1.416,2.157,2.157,0,0,1,1.753,2.405c0,3.482-.919,2.344-.789,3.431a.8.8,0,0,0,1.59-.013c.127-1.084-.785.055-.785-3.425a2.16,2.16,0,0,1,1.753-2.409,2.467,2.467,0,0,1,2.608,1.416c.442,1,2.577,2.412,2.577,2.412l0,0a9.4,9.4,0,0,0,3.157,1.63,2.429,2.429,0,0,1,2.19,1.97c.252,1.2-.717,2.019-1.816,2.365-3.409,1.078-2.556-.108-3.579.347a.8.8,0,0,0-.454.956" transform="translate(-132.524 -66.915)" fill="#fff"/>
    <path id="Path_14257" data-name="Path 14257" d="M206.537,119.153a2.821,2.821,0,0,1-1.4-.372,13.305,13.305,0,0,0-6.818,0,2.78,2.78,0,0,1-3.282-.374,1.966,1.966,0,0,1-.607-2.052,2.133,2.133,0,0,1-2.2.083,2.61,2.61,0,0,1-1.383-2.915,8.153,8.153,0,0,0-.6-3.245l-.005-.006-.014-.044a8.375,8.375,0,0,0-1.485-3,2.583,2.583,0,0,1-.648-3.144,2.116,2.116,0,0,1,1.822-1.192,2.022,2.022,0,0,1-.76-2.012,2.691,2.691,0,0,1,2.425-2.176,8.818,8.818,0,0,0,3.025-1.58l.029-.02a8.633,8.633,0,0,0,2.466-2.289,2.726,2.726,0,0,1,2.883-1.569,2.1,2.1,0,0,1,1.726,1.31,2.057,2.057,0,0,1,1.734-1.321,2.729,2.729,0,0,1,2.882,1.57,8.638,8.638,0,0,0,2.482,2.3,8.84,8.84,0,0,0,3.035,1.589,2.685,2.685,0,0,1,2.427,2.176,1.97,1.97,0,0,1-.747,2,2.116,2.116,0,0,1,1.828,1.191,2.589,2.589,0,0,1-.646,3.145,8.32,8.32,0,0,0-1.478,2.968v.008l-.016.047a8.233,8.233,0,0,0-.615,3.271,2.612,2.612,0,0,1-1.381,2.916,2.125,2.125,0,0,1-2.2-.074,2.022,2.022,0,0,1-.6,2.057,2.8,2.8,0,0,1-1.885.745m-4.465-1.334a8.5,8.5,0,0,1,3.339.52,2.244,2.244,0,0,0,2.652-.309,1.876,1.876,0,0,0-.072-2.608c-1.263-1.685-1.718-1.747-1.99-1.784a.852.852,0,0,1-.728-.526,1.049,1.049,0,0,1,.271-1.367,1.109,1.109,0,0,1,1.437.152.821.821,0,0,1,.3.826c-.043.26-.115.695,1.146,2.38a2.007,2.007,0,0,0,2.534.873,2.111,2.111,0,0,0,1.123-2.353,8.7,8.7,0,0,1,.625-3.536l0-.013c.031-.1.752-2.484,1.649-3.246a2.093,2.093,0,0,0,.513-2.544,2,2,0,0,0-2.576-.738c-2.042.642-2.252,1.052-2.378,1.3a.863.863,0,0,1-.746.512,1.1,1.1,0,0,1-1.257-.672l-.007-.02a1.043,1.043,0,0,1,.6-1.26.909.909,0,0,1,.906-.026c.247.117.661.313,2.7-.332.94-.3,1.864-.994,1.638-2.068A2.167,2.167,0,0,0,211.8,99.21a9.443,9.443,0,0,1-3.3-1.683c-.08-.052-2.194-1.454-2.662-2.517a2.205,2.205,0,0,0-2.334-1.261c-1.119.128-1.518,1.2-1.518,2.153,0,2.085.327,2.413.522,2.609a.85.85,0,0,1,.261.846,1.065,1.065,0,0,1-2.116.014.851.851,0,0,1,.261-.85c.2-.2.526-.526.526-2.61,0-.957-.4-2.024-1.519-2.15a2.2,2.2,0,0,0-2.335,1.261c-.468,1.055-2.558,2.447-2.668,2.52a9.4,9.4,0,0,1-3.292,1.677,2.173,2.173,0,0,0-1.953,1.766c-.225,1.076.7,1.774,1.636,2.069,2.041.644,2.457.449,2.7.332a.908.908,0,0,1,.9.027,1.057,1.057,0,0,1,.612,1.259,1.094,1.094,0,0,1-1.256.7.866.866,0,0,1-.747-.513c-.126-.245-.337-.655-2.377-1.3a2.006,2.006,0,0,0-2.579.74,2.086,2.086,0,0,0,.515,2.543,8.881,8.881,0,0,1,1.64,3.223l0,.005c.037.1.9,2.44.631,3.566a2.108,2.108,0,0,0,1.126,2.352,1.994,1.994,0,0,0,2.531-.871c1.264-1.687,1.192-2.122,1.149-2.381a.821.821,0,0,1,.3-.825,1.119,1.119,0,0,1,1.424-.172,1.032,1.032,0,0,1,.294,1.371.852.852,0,0,1-.728.526c-.273.037-.729.1-1.989,1.784a1.874,1.874,0,0,0-.072,2.608,2.246,2.246,0,0,0,2.652.31,9.713,9.713,0,0,1,3.684-.516c.019,0,.144,0,.337,0m-4.8-5.747a.551.551,0,0,0-.41.189c-.2.206-.189.25-.165.4a1.416,1.416,0,0,1-.057.757,1.532,1.532,0,0,1,.748-.286c.157-.021.2-.027.339-.269a.531.531,0,0,0-.141-.7.651.651,0,0,0-.314-.086m8.919-.01a.651.651,0,0,0-.331.1.549.549,0,0,0-.123.7c.139.241.182.246.338.268a1.533,1.533,0,0,1,.74.281,1.415,1.415,0,0,1-.059-.767c.024-.146.031-.19-.164-.4a.54.54,0,0,0-.4-.183m-12.7-8.04a1.519,1.519,0,0,1,.519.606c.073.141.094.184.376.239a.559.559,0,0,0,.648-.352.552.552,0,0,0-.329-.634c-.267-.12-.311-.1-.452-.032a1.593,1.593,0,0,1-.762.174m14.927.488a.564.564,0,0,0,.652.34c.283-.055.3-.1.376-.237a1.505,1.505,0,0,1,.51-.6,1.6,1.6,0,0,1-.773-.174c-.142-.067-.185-.088-.451.031a.53.53,0,0,0-.313.641m-6.7-6.3a1.549,1.549,0,0,1-.418.666c-.115.115-.149.149-.116.432a.533.533,0,0,0,1.062-.011c.033-.282,0-.317-.115-.431a1.53,1.53,0,0,1-.414-.656" transform="translate(-131.896 -66.281)" fill="#004893"/>
    <path id="Path_14258" data-name="Path 14258" d="M229.663,132.54l1.98,1.319-.757,2.509h-2.654l-.631-2.509Z" transform="translate(-159.835 -94.241)" fill="#ffd600"/>
    <path id="Path_14259" data-name="Path 14259" d="M230.66,136.146h-2.833l-.673-2.673,2.2-1.4,2.115,1.408Zm-2.65-.226h2.475l.709-2.349-1.846-1.229-1.928,1.233Z" transform="translate(-159.521 -93.906)" fill="#004893"/>
    <rect id="Rectangle_6310" data-name="Rectangle 6310" width="0.228" height="2.145" transform="matrix(0.406, -0.914, 0.914, 0.406, 65.749, 38.871)" fill="#004893"/>
    <rect id="Rectangle_6311" data-name="Rectangle 6311" width="0.233" height="2.233" transform="translate(69.712 36.065)" fill="#004893"/>
    <rect id="Rectangle_6312" data-name="Rectangle 6312" width="2.164" height="0.228" transform="translate(71.739 39.669) rotate(-15.774)" fill="#004893"/>
    <rect id="Rectangle_6313" data-name="Rectangle 6313" width="2.002" height="0.231" transform="translate(67.082 43.65) rotate(-54.446)" fill="#004893"/>
    <rect id="Rectangle_6314" data-name="Rectangle 6314" width="0.23" height="2.121" transform="matrix(0.758, -0.652, 0.652, 0.758, 70.798, 42.201)" fill="#004893"/>
    <path id="Path_14260" data-name="Path 14260" d="M228.768,120.821l1.691.451,1.754-.472.048-.621a7.787,7.787,0,0,0-1.855-.374,15.349,15.349,0,0,0-1.671.275Z" transform="translate(-160.631 -85.185)" fill="#ffd600"/>
    <path id="Path_14261" data-name="Path 14261" d="M230.175,121.111l-1.8-.481-.041-.919.1-.021a15.068,15.068,0,0,1,1.694-.278,7.8,7.8,0,0,1,1.9.38l.086.028-.061.788Zm-1.579-.655,1.579.42,1.644-.443.035-.452a7.159,7.159,0,0,0-1.729-.342,13.523,13.523,0,0,0-1.554.253Z" transform="translate(-160.346 -84.907)" fill="#004893"/>
    <path id="Path_14262" data-name="Path 14262" d="M248.228,129.09l-.051,1.744.97,1.5.763-.179a7.127,7.127,0,0,0-.126-1.743c-.168-.383-.784-1.589-.784-1.589Z" transform="translate(-174.284 -91.597)" fill="#ffd600"/>
    <path id="Path_14263" data-name="Path 14263" d="M248.817,132.117l-1.034-1.6.054-1.856.945-.329.046.09c.025.049.62,1.213.787,1.6a6.762,6.762,0,0,1,.135,1.791l0,.086Zm-.8-1.659.907,1.4.595-.14a6.226,6.226,0,0,0-.118-1.609c-.138-.315-.589-1.205-.735-1.493l-.6.209Z" transform="translate(-174.008 -91.251)" fill="#004893"/>
    <path id="Path_14264" data-name="Path 14264" d="M242.243,149.2l-1.665.664-1.033,1.354.4.615a8.227,8.227,0,0,0,1.679-.838c.314-.327,1.21-1.209,1.21-1.209Z" transform="translate(-168.223 -106.091)" fill="#ffd600"/>
    <path id="Path_14265" data-name="Path 14265" d="M239.564,151.648l-.493-.76,1.1-1.441,1.767-.7.726.719-.08.079c-.009.009-.9.885-1.208,1.207a7.783,7.783,0,0,1-1.721.866Zm-.21-.749.3.469a7.117,7.117,0,0,0,1.548-.775c.256-.266.9-.907,1.132-1.132l-.456-.451-1.562.623Z" transform="translate(-167.89 -105.762)" fill="#004893"/>
    <path id="Path_14266" data-name="Path 14266" d="M221.545,151.01l-1.156-1.312-1.545-.741-.572.6a8.857,8.857,0,0,0,1.341,1.342c.382.192,1.541.714,1.541.714Z" transform="translate(-153.283 -105.914)" fill="#ffd600"/>
    <path id="Path_14267" data-name="Path 14267" d="M220.835,151.418l-.093-.042c-.048-.021-1.165-.525-1.545-.716a8.389,8.389,0,0,1-1.378-1.371l-.063-.076.7-.738,1.66.807,1.212,1.375Zm-2.772-2.2a7.694,7.694,0,0,0,1.24,1.237c.312.157,1.16.541,1.443.669l.291-.45-1.084-1.232-1.445-.694Z" transform="translate(-152.92 -105.572)" fill="#004893"/>
    <path id="Path_14268" data-name="Path 14268" d="M215.531,130.526l1.135-1.351.174-1.762-.583-.265a9.493,9.493,0,0,0-.986,1.483c-.16.486-.436,1.662-.436,1.662Z" transform="translate(-150.87 -90.407)" fill="#ffd600"/>
    <path id="Path_14269" data-name="Path 14269" d="M215.247,130.311l-.872-.292.023-.1c.011-.048.278-1.186.439-1.671a9.318,9.318,0,0,1,1-1.517l.057-.073.743.338-.185,1.876Zm-.6-.44.52.174,1.061-1.263.162-1.648-.423-.192a8.269,8.269,0,0,0-.911,1.377c-.13.394-.34,1.26-.41,1.553" transform="translate(-150.547 -90.06)" fill="#004893"/>
    <path id="Path_14270" data-name="Path 14270" d="M220.241,130.994a5.88,5.88,0,1,1,6.054-5.877,5.976,5.976,0,0,1-6.054,5.877m0-11.327a5.452,5.452,0,1,0,5.614,5.45,5.542,5.542,0,0,0-5.614-5.45" transform="translate(-150.413 -84.785)" fill="#004893"/>
    <path id="Path_14271" data-name="Path 14271" d="M200.672,96.777l3.037-1.465-2.331,2.4L198.3,99.131Z" transform="translate(-139.259 -67.771)" fill="#004893"/>
    <path id="Path_14272" data-name="Path 14272" d="M226.39,184.682l-3.342-.547,3.341-.612,3.341.608Z" transform="translate(-156.637 -130.492)" fill="#004893"/>
    <path id="Path_14273" data-name="Path 14273" d="M276.445,146.422l-1.571,2.916.432-3.274,1.631-2.9Z" transform="translate(-193.033 -101.798)" fill="#004893"/>
    <path id="Path_14274" data-name="Path 14274" d="M255.675,96.969l2.376,2.35-3.078-1.411-2.334-2.4Z" transform="translate(-177.418 -67.911)" fill="#004893"/>
    <path id="Path_14275" data-name="Path 14275" d="M187.431,146.128l-.5-3.255,1.637,2.894.435,3.275Z" transform="translate(-131.274 -101.589)" fill="#004893"/>
    <path id="Path_14276" data-name="Path 14276" d="M185.192,123.512s.005-.643-1.094-.991a31.089,31.089,0,0,0-4.044-.629,30.3,30.3,0,0,0,3.653,1.8c1.1.346,1.485-.176,1.485-.176" transform="translate(-126.444 -86.671)" fill="#004893"/>
    <path id="Path_14277" data-name="Path 14277" d="M204.065,171.19s-.629-.2-1.307.7a28.577,28.577,0,0,0-1.87,3.536,29.512,29.512,0,0,0,2.889-2.814c.681-.909.287-1.426.287-1.426" transform="translate(-141.076 -121.709)" fill="#004893"/>
    <path id="Path_14278" data-name="Path 14278" d="M223.179,314.409c.191-.059.364-.012.406.105a2.6,2.6,0,0,1,0,2.231,2.705,2.705,0,0,1-2.9,1.205,3.069,3.069,0,0,1-2.481-2.578,5.147,5.147,0,0,1-5.076,2.314c-3.413-.461-1.658-4.4-1.195-5.086,1.371-2.032,3.955-6.478,4.226-7.025s.805-1.881-.032-2.223-2.058.283-2.713,1.331c-.2.322-.239.142-.351.062a.948.948,0,0,1-.244-.315c-.064-.107.188-.344.266-.454a3.837,3.837,0,0,1,3.728-1.339c1.731.413,1.944,1.356,1.861,2.188s-4.4,7.641-4.984,9.126-.226,2.362.6,2.426,2.839-.176,4.163-2.975,3.414-7.1,3.869-8,1.127-2.132,1.261-2.318.108-.266.5-.22,1.337.174,1.531.174.071.381-.075.569-4.574,8.713-5.15,10.466.5,2.181.725,2.239c.372.1,1.547.18,1.725-.7a1.623,1.623,0,0,0-.1-.923.108.108,0,0,1,.062-.132,2.626,2.626,0,0,1,.378-.151" transform="translate(-148.228 -215.119)" fill="#004893"/>
    <path id="Path_14279" data-name="Path 14279" d="M226.1,365.63c-.074-.142-.264-.152-.386.051a1.64,1.64,0,0,1-1.086.827,21.169,21.169,0,0,1-5.7.067c-2.194-.125-5.064.051-5.885,1.06a1.64,1.64,0,0,0-.316,2.018,2.306,2.306,0,0,0,1.452.982,1.828,1.828,0,0,0,1.477-.139c.239-.159-.17-.352-.317-.444s-1.083-.3-1.108-.728a1.1,1.1,0,0,1,.678-.985,7.207,7.207,0,0,1,3.116-.261,20.061,20.061,0,0,1-1.233,5.07c-.753,0-3.141.128-3.681,1.5a1.324,1.324,0,0,0,.194,1.46c.244.186.414.166.414-.068a1.512,1.512,0,0,1,.266-.965,3.056,3.056,0,0,1,2.468-.427c-.414,1.412-1.647,4.961-2.953,5.615s-2.138.166-2.247.021a1.356,1.356,0,0,1-.313-.772c0-.166-.462-.681-.61.047a2.1,2.1,0,0,0,1.665,2.1,3.689,3.689,0,0,0,3.466-.921,12.015,12.015,0,0,0,3.312-5.855,6.813,6.813,0,0,0,2.466-.115,2.287,2.287,0,0,0,1.539-1.548,1.722,1.722,0,0,0-.061-.982c-.1-.213-.431-.518-.483-.257a1.257,1.257,0,0,1-.461,1.033,3.24,3.24,0,0,1-2.586.352c.338-1.033,1.159-5.168,1.159-5.168a16.466,16.466,0,0,0,3.557-.234,3.593,3.593,0,0,0,2.058-1.338,1.133,1.133,0,0,0,.139-1" transform="translate(-147.69 -259.903)" fill="#004893"/>
    <path id="Path_14280" data-name="Path 14280" d="M223.15,246.055c0-.19-.269-.095-.365,0s-2.007,1.854-3.315,1.9a11.156,11.156,0,0,1-5.707-1.221,28.984,28.984,0,0,0,3.193-6.855,8.561,8.561,0,0,0,4.934-2.512c.824-1.033,1.138-2.441.509-3.053-1.235-1.2-4.431-1.056-6.246,2.323-.375.708-.73,1.467-1.057,2.235a4.481,4.481,0,0,1-1.72-.592c-.17-.139-.29-.211-.268-.023a1.306,1.306,0,0,1-.022.4s-.122.258.072.329a4.53,4.53,0,0,0,1.666.529c-1.112,2.709-1.964,5.473-2.78,6.87a5.226,5.226,0,0,0-3.121-.169c-.967.281-2.732,1.106-2.567,2.586s2.979,1.383,3.221,1.361a4.709,4.709,0,0,0,3.242-2.068c1.885,1.223,3.459,1.9,4.856,1.88a5.97,5.97,0,0,0,5.447-3.172,2.451,2.451,0,0,0,.027-.748" transform="translate(-144.909 -166.119)" fill="#004893"/>
    <path id="Path_14281" data-name="Path 14281" d="M213.829,279.3a2.375,2.375,0,0,0-3.292.257c-.775,1.056.436,1.361.7,1.361s1.475.235,2.59-1.619" transform="translate(-147.672 -198.211)" fill="#fff"/>
    <path id="Path_14282" data-name="Path 14282" d="M242.563,241.833a17.264,17.264,0,0,1,1.208-3.2c.362-.421,1.38-1.174,2.2-.421s-.185,2.095-.409,2.279a7.2,7.2,0,0,1-3,1.338" transform="translate(-170.342 -169.153)" fill="#fff"/>
    <path id="Path_14283" data-name="Path 14283" d="M225.8,426.075a2.407,2.407,0,0,0-.9-3.349c-.331-.115-2.337-.745-5.062.941a12.5,12.5,0,0,0-6.254,8.7c-.644,4.321,2.447,5.855,2.793,5.95A4.8,4.8,0,0,0,221.763,437a5.467,5.467,0,0,0,1.313-2.134c.1-.24-.348-.531-.542-.24a9.218,9.218,0,0,1-2.176,2.35c-.841.434-2.6.647-3.336-.386a5.234,5.234,0,0,1-.542-4.294c.393-1.585,1.654-5.279,4.024-7.244s3.858-1.849,4.351-1.514a2.015,2.015,0,0,1,.391,2.246c-.149.274.338.623.551.288" transform="translate(-149.93 -300.426)" fill="#004893"/>
  </g>
</svg>
