<svg id="Tottenham_Logo" data-name="Tottenham Logo" xmlns="http://www.w3.org/2000/svg" width="22.042" height="54.61" viewBox="0 0 22.042 54.61">
  <g id="Group_334" data-name="Group 334">
    <g id="Group_333" data-name="Group 333">
      <g id="Group_330" data-name="Group 330" transform="translate(0 38.898)">
        <g id="Group_329" data-name="Group 329">
          <path id="Path_8778" data-name="Path 8778" d="M535.34,259.734a.85.85,0,0,1-.484-.343,3.285,3.285,0,0,0-.681,2.688,8.682,8.682,0,0,0,7.5,6.166C538.287,267.214,535.78,263.682,535.34,259.734Zm-.694-1.984a4.817,4.817,0,0,1-.527-.419,8.752,8.752,0,0,0-.294,2.629q.012.276.04.546a5.592,5.592,0,0,1,.759-1.673A2.615,2.615,0,0,1,534.646,257.75Zm.167-.512a2.266,2.266,0,0,1,.336-.55,1.434,1.434,0,0,1,.343-.3,7.823,7.823,0,0,1,1.982-3.854,8.692,8.692,0,0,0-3.19,4.266A2.672,2.672,0,0,0,534.812,257.238Zm12.721,7.717a12.721,12.721,0,0,1-2.145-.423,2.046,2.046,0,0,1-1.138-1.072,2.148,2.148,0,0,1-.2-.823,2.407,2.407,0,0,1,.07-.664,44.971,44.971,0,0,1-7.526-3.019,2.216,2.216,0,0,1-.239.353,1.332,1.332,0,0,1-.489.377,10.89,10.89,0,0,0,1.673,4.679,7.792,7.792,0,0,0,4.641,3.554,5.233,5.233,0,0,0,2.2.157,8.685,8.685,0,0,0,6.063-4.994,3.1,3.1,0,0,1-.425.042A2.3,2.3,0,0,1,547.533,264.955Zm3.624-5.7a8.653,8.653,0,0,0-.559-2.735c-.4-1.047-1.734-1.789-3.492-2.187a12.841,12.841,0,0,0-10.24,2.765,2.626,2.626,0,0,1-.066,1.369,44.42,44.42,0,0,0,7.492,3.01,2.324,2.324,0,0,1,2.788-1.495c.675.169,1.112.258,1.428.322l.349.074a1.694,1.694,0,0,1,1.079.818,2.088,2.088,0,0,1,.216,1.4c.33-.019.489-.074.527-.12A8.68,8.68,0,0,0,551.158,259.254Zm-1.542,3.34a1.593,1.593,0,0,0-.139-1.136,1.156,1.156,0,0,0-.74-.565l-.334-.07c-.305-.063-.764-.155-1.453-.328a1.793,1.793,0,0,0-2.149,1.134c.449.129.891.25,1.322.36a4.4,4.4,0,0,0,.085-.573.264.264,0,1,1,.527.03,5.26,5.26,0,0,1-.1.668l.254.059.254.055c.076-.37.125-.685.125-.692a.264.264,0,0,1,.521.08c0,.025-.051.341-.129.719.177.036.345.064.5.093a5.148,5.148,0,0,0,.074-.58.264.264,0,0,1,.527.027,5.616,5.616,0,0,1-.078.632C549.054,262.556,549.362,262.582,549.616,262.594Zm-4.888.645a1.519,1.519,0,0,0,.833.795,12.161,12.161,0,0,0,2.03.4,1.762,1.762,0,0,0,1.866-1.314c-.281-.015-.58-.049-.891-.091a2.663,2.663,0,0,1-.228.544.264.264,0,0,1-.459-.26,2.018,2.018,0,0,0,.159-.368c-.163-.028-.328-.059-.491-.091a4.073,4.073,0,0,1-.188.582.264.264,0,1,1-.483-.211,3.558,3.558,0,0,0,.155-.478l-.254-.057-.271-.063c-.047.152-.1.311-.171.472a.263.263,0,1,1-.485-.2c.055-.133.1-.266.142-.393-.444-.114-.9-.239-1.364-.374A1.7,1.7,0,0,0,544.728,263.239Zm-8.689-6.574a.629.629,0,0,0-.582.233,2.151,2.151,0,0,0-.512,1.6v0a1.185,1.185,0,0,0,.08.4.666.666,0,0,0,.44.429.645.645,0,0,0,.569-.3,2.256,2.256,0,0,0,.387-1.954A.566.566,0,0,0,536.04,256.665Z" transform="translate(-533.817 -252.532)" fill="#121e3d"/>
        </g>
      </g>
      <g id="Group_332" data-name="Group 332">
        <g id="Group_331" data-name="Group 331">
          <path id="Path_8779" data-name="Path 8779" d="M544.241,261.808a9.609,9.609,0,0,1-1.975,6.045c-2.242,2.242-4.091.609-4.11,2.858a7.48,7.48,0,0,0-2.107,3.92c.021,0,.044.006.066.009a.836.836,0,0,1,.529.349,13.411,13.411,0,0,1,10.578-2.782,5.915,5.915,0,0,1,2.651,1.235,8.7,8.7,0,0,0-4.459-3.613c-.442-.159-1.225-.339-1.225-1.771,0-2.672,2.923-.594,4.848-3.5.095-.142-.04-.269-.154-.156a4.853,4.853,0,0,1-2.769.982,2.2,2.2,0,0,1-1.043-.173,20.791,20.791,0,0,1,1.607-2.634c-1.789-1.789,1.22-11.617,9.182-11.617a24.969,24.969,0,0,0-.533-5.381c-.19.045-1.69.4-1.758.083-.061-.279,1.106-.886,1.506-1.085a8.9,8.9,0,0,0-.781-2c-6.824,2.151-5.453,7.8-7.114,7.8a3.388,3.388,0,0,1-2.236-1.147c-4.076-4.074-2.175-6.771-2.175-12.188,0-3.649-1.417-5.015-4.034-5.015s-3.55,1.132-3.55,1.132a3.71,3.71,0,0,1,3.585,3.882c0,3.943-4.44,5.03-4.44,10.031C534.327,255.4,544.241,255.238,544.241,261.808Zm-4.727-24.77a5.618,5.618,0,0,0-.146-1.314.879.879,0,0,0,.779-.99,1.469,1.469,0,0,0-.662-1.316c-.112,0-.14.119-.385.119-.6,0-.639-.761-.639-.761.087,0,.178-.006.271-.006,1.707,0,3.285.518,3.285,4.267a33.99,33.99,0,0,1-.247,3.71,22.65,22.65,0,0,0-.19,3.052s-2.972-.351-2.972-2.585C538.61,239.761,539.514,239.409,539.514,237.038Zm-4.174,41.085a.85.85,0,0,1-.484-.343,3.285,3.285,0,0,0-.681,2.688,8.682,8.682,0,0,0,7.5,6.166C538.287,285.6,535.78,282.072,535.34,278.123Zm-.694-1.984a4.825,4.825,0,0,1-.527-.419,8.751,8.751,0,0,0-.294,2.629q.012.276.04.546a5.592,5.592,0,0,1,.759-1.673A2.615,2.615,0,0,1,534.646,276.139Zm.167-.512a2.268,2.268,0,0,1,.336-.55,1.436,1.436,0,0,1,.343-.3,7.823,7.823,0,0,1,1.982-3.854,8.691,8.691,0,0,0-3.19,4.266A2.67,2.67,0,0,0,534.812,275.627Zm12.721,7.717a12.715,12.715,0,0,1-2.145-.423,2.047,2.047,0,0,1-1.138-1.072,2.148,2.148,0,0,1-.2-.823,2.406,2.406,0,0,1,.07-.664,44.969,44.969,0,0,1-7.526-3.019,2.218,2.218,0,0,1-.239.353,1.333,1.333,0,0,1-.489.377,10.891,10.891,0,0,0,1.673,4.679,7.792,7.792,0,0,0,4.641,3.554,5.233,5.233,0,0,0,2.2.157,8.685,8.685,0,0,0,6.063-4.994,3.1,3.1,0,0,1-.425.042A2.3,2.3,0,0,1,547.533,283.344Zm3.065-8.436c-.4-1.047-1.734-1.789-3.492-2.187a12.841,12.841,0,0,0-10.24,2.765,2.627,2.627,0,0,1-.066,1.369,44.42,44.42,0,0,0,7.492,3.01,2.324,2.324,0,0,1,2.788-1.495c.675.169,1.112.258,1.428.322l.349.074a1.694,1.694,0,0,1,1.079.818,2.088,2.088,0,0,1,.216,1.4c.33-.019.489-.074.527-.119a8.706,8.706,0,0,0-.081-5.955Zm-5.87,6.72a1.519,1.519,0,0,0,.833.795,12.157,12.157,0,0,0,2.03.4,1.762,1.762,0,0,0,1.866-1.314c-.281-.015-.58-.049-.891-.091a2.666,2.666,0,0,1-.228.544.264.264,0,0,1-.459-.26,2.017,2.017,0,0,0,.159-.368c-.163-.028-.328-.059-.491-.091a4.078,4.078,0,0,1-.188.582.264.264,0,1,1-.483-.211,3.56,3.56,0,0,0,.155-.478l-.254-.057-.271-.063c-.047.152-.1.311-.171.472a.263.263,0,1,1-.485-.2c.055-.133.1-.266.142-.393-.444-.114-.9-.239-1.364-.374A1.7,1.7,0,0,0,544.728,281.628Zm4.888-.645a1.593,1.593,0,0,0-.139-1.136,1.156,1.156,0,0,0-.74-.565l-.334-.07c-.305-.063-.764-.155-1.453-.328a1.793,1.793,0,0,0-2.149,1.134c.449.129.891.25,1.322.36a4.4,4.4,0,0,0,.085-.573.264.264,0,0,1,.527.03,5.26,5.26,0,0,1-.1.668l.254.059.254.055c.076-.37.125-.685.125-.692a.264.264,0,0,1,.521.08c0,.025-.051.341-.129.719.177.036.345.065.5.093a5.148,5.148,0,0,0,.074-.58.264.264,0,0,1,.527.027,5.615,5.615,0,0,1-.078.632C549.054,280.945,549.362,280.972,549.616,280.983Zm-13.576-5.929a.629.629,0,0,0-.582.233,2.152,2.152,0,0,0-.512,1.6v0a1.185,1.185,0,0,0,.08.4.666.666,0,0,0,.44.429.645.645,0,0,0,.569-.3,2.256,2.256,0,0,0,.387-1.954A.566.566,0,0,0,536.04,275.054Z" transform="translate(-533.817 -232.023)" fill="#131f53"/>
        </g>
      </g>
    </g>
  </g>
</svg>
